STARTFONT 2.3
FONT -FontForge-Fontdiner Swanky-Book-R-Normal--28-280-72-72-P-177-ISO10646-1
SIZE 28 72 72  4
FONTBOUNDINGBOX 40 43 -7 -14
COMMENT "Generated by fontforge, http://fontforge.sourceforge.net"
COMMENT "Copyright (c) 2010 by Font Diner, Inc. All rights reserved."
STARTPROPERTIES 40
FOUNDRY "FontForge"
FAMILY_NAME "Fontdiner Swanky"
WEIGHT_NAME "Book"
SLANT "R"
SETWIDTH_NAME "Normal"
ADD_STYLE_NAME ""
PIXEL_SIZE 28
POINT_SIZE 280
RESOLUTION_X 72
RESOLUTION_Y 72
SPACING "P"
AVERAGE_WIDTH 177
CHARSET_REGISTRY "ISO10646"
CHARSET_ENCODING "1"
FONTNAME_REGISTRY ""
CHARSET_COLLECTIONS "ISO10646-1"
BITS_PER_PIXEL 4
FONT_NAME "FontdinerSwanky-Regular"
FACE_NAME "Fontdiner Swanky Regular"
COPYRIGHT "Copyright (c) 2010 by Font Diner, Inc. All rights reserved."
FONT_VERSION "1.001"
FONT_ASCENT 22
FONT_DESCENT 6
UNDERLINE_POSITION -3
UNDERLINE_THICKNESS 2
X_HEIGHT 15
CAP_HEIGHT 17
RAW_ASCENT 799
RAW_DESCENT 200
NORM_SPACE 9
RELATIVE_WEIGHT 40
RELATIVE_SETWIDTH 50
SUPERSCRIPT_X 0
SUPERSCRIPT_Y 13
SUPERSCRIPT_SIZE 17
SUBSCRIPT_X 0
SUBSCRIPT_Y 3
SUBSCRIPT_SIZE 17
AVG_LOWERCASE_WIDTH 177
AVG_UPPERCASE_WIDTH 216
ENDPROPERTIES
CHARS 231
STARTCHAR space
ENCODING 32
SWIDTH 320 0
DWIDTH 9 0
BBX 1 1 0 0
BITMAP
00
ENDCHAR
STARTCHAR exclam
ENCODING 33
SWIDTH 305 0
DWIDTH 9 0
BBX 9 25 0 -1
BITMAP
0039876420
005FFFFF60
006FFFFF40
006FFFFF10
007FFFFD00
008FFFFA00
008FFFF800
009FFFF500
009FFFF200
00AFFFE000
00BFFFC000
00BFFF9000
00CFFF6000
00CFFF3000
00DFFF1000
00EFFD0000
00EFFA0000
00FFF70000
00ABD40000
0000000000
09EE900000
8FFFF60000
AFFFF90000
2DFFE30000
0033100000
ENDCHAR
STARTCHAR quotedbl
ENCODING 34
SWIDTH 369 0
DWIDTH 10 0
BBX 10 8 0 11
BITMAP
5888538888
AFFF94FFFE
8FFF83FFFD
7FFF62FFFC
6FFF51FFFA
4FFF40EFF9
3FFF20DFF8
2CDD10ADD5
ENDCHAR
STARTCHAR numbersign
ENCODING 35
SWIDTH 702 0
DWIDTH 20 0
BBX 20 20 0 0
BITMAP
00000000000000110000
00002EEF70005FF80000
00003FFF50007FF70000
00004FFF30008FF60000
06779FFF6444BFF72210
0EFFFFFFFFFFFFFFFFF4
1FFFFFFFFFFFFFFFFFF1
3FFFFFFFFFFFFFFEDDC0
12119FFB0001FFF20000
0000AFF90003FFF10000
0000BFF80004FFF00000
0000CFF60006FFE00000
6BBBEFFDCDDEFFFEEE80
BFFFFFFFFFFFFFFFFF70
DFFFFFFFFFFFFFFFFF50
3345FFF6667DFFD99A30
0001FFE0000DFFA00000
0002FFC0000FFF900000
0003FFB0001FFF800000
00014310000322100000
ENDCHAR
STARTCHAR dollar
ENCODING 36
SWIDTH 545 0
DWIDTH 15 0
BBX 15 25 0 -4
BITMAP
0000066660000000
00000EFFC0000000
00000DFFB0000000
00000BFF90000110
00038EFFC5000910
019FFFFFFFD32F10
0CFFFB9AEFFFCF00
6FFF600006EFFE00
AFFF5000002DFE00
AFFFE6000002DD00
6FFFFFE940002C00
0CFFFFFFFD710400
01CFFFFFFFFE8000
0206EFFFFFFFFB10
0C0005BFFFFFFF80
1F8000016DFFFFD0
3FF8000000AFFFF0
4FFFB200005FFFC0
6FFFFFC88AFFFF50
7F8CFFFFFFFFE600
980038FFFC961000
500001FFF4000000
000002FFF5000000
000004FFF7000000
0000027763000000
ENDCHAR
STARTCHAR percent
ENCODING 37
SWIDTH 657 0
DWIDTH 18 0
BBX 19 24 0 -2
BITMAP
00000000000088300000
002676200001FFFD0000
08FFFFE60007FFF90000
5FFFAEFF300DFFF20000
AFF606FF904FFFB00000
AFF404FFA0AFFF400000
7FFA3AFF71FFFD000000
1DFFFFFC07FFF6000000
02AFFE910DFFE1000000
000010004FFF80000000
00000000AFFF20000000
00000002FFFA00000000
00000007FFF400000000
0000000DFFC000000000
0000005FFF6002441000
000000BFFE02BFFFE700
000002FFF70DFFEFFF50
000008FFF14FFC13FFD0
00000DFF906FF800EFE0
00005FFF304FFC13FFC0
0000BFFB000BFFFFFF50
0002FFF50001AFFFD500
00029ED0000002430000
00000120000000000000
ENDCHAR
STARTCHAR ampersand
ENCODING 38
SWIDTH 668 0
DWIDTH 19 0
BBX 23 25 0 -4
BITMAP
000017BDEC81000000000000
0005EFFFFFFE300000000000
004FFF801CFFD00000000000
00AFFD0003FFF40000000000
00BFFD0000EFF60000000000
009FFF5000FFF30000000000
003FFFE306FFB00000000000
000AFFFD3EFE200000000000
0001DFFFFFE3000000000000
00003FFFFE20014000000000
00006EFFFF6000A200000000
000AFFFFFFF3008C00000000
009FFE3DFFFE206F90000000
04FFF603FFFFC07FF5000000
0CFFF2007FFFF9CFFE200000
1FFFF2000AFFFFFE57800000
2FFFFA0001DFFFF700136710
0EFFFFA3128FFFFE9CFF9100
08FFFFFFFFFFFFFFFFD40000
00AFFFFFFFF9AFFFF9100000
0006CFFFC7207FFD40000000
000000100001EFA100000000
000000000009E50000000000
00000000003A100000000000
000000000020000000000000
ENDCHAR
STARTCHAR quotesingle
ENCODING 39
SWIDTH 177 0
DWIDTH 5 0
BBX 5 8 0 11
BITMAP
7BBB70
9FFF90
8FFF70
7FFF60
5FFF50
4FFF30
3FFF20
1AAA00
ENDCHAR
STARTCHAR parenleft
ENCODING 40
SWIDTH 384 0
DWIDTH 11 0
BBX 10 28 1 -4
BITMAP
0000000013
0000003AD2
000019FF30
0002DFF600
001DFFB000
00AFFF3000
04FFFB0000
0AFFF50000
0EFFF10000
3FFFD00000
5FFFB00000
7FFF900000
8FFF800000
9FFF800000
9FFF900000
8FFF900000
7FFFB00000
5FFFD00000
2FFFF20000
0EFFF60000
09FFFB0000
03FFFF2000
00AFFF8000
001DFFE100
0003EFF900
00002DFF40
0000018FD1
0000000288
ENDCHAR
STARTCHAR parenright
ENCODING 41
SWIDTH 375 0
DWIDTH 11 0
BBX 10 28 0 -4
BITMAP
4000000000
4E81000000
06FE700000
00AFFB1000
001EFFB000
0006FFF700
0000EFFE10
00009FFF60
00004FFFB0
00001FFFE0
00000EFFF2
00000CFFF4
00000BFFF5
00000BFFF5
00000CFFF5
00000CFFF4
00000EFFF4
00001FFFF2
00005FFFE0
00009FFFB0
0000EFFF60
0004FFFE10
000BFFF600
003FFFB000
00CFFC1000
06FFB10000
2EE6000000
9710000000
ENDCHAR
STARTCHAR asterisk
ENCODING 42
SWIDTH 640 0
DWIDTH 18 0
BBX 18 18 0 0
BITMAP
000029500056000000
003BFFC000BFC20000
002EFFF301FFFF7000
0005FFFA06FFFFC100
0000AFFF2CFFFD2000
00001DFFAFFFE30000
6B8524FFFFFF500012
7FFFFEFFFFFDABDEFD
8FFFFFFFFFFFFFFFFB
9FFFFFFFFFFFFFFFFA
AFFDA8EFFFFD679BC7
330009FFFFFF700000
00005FFF7FFFF50000
0002EFFD0CFFFE3000
000CFFF607FFFFD100
002DFFE102FFF92000
0001AF7000CA200000
000006100000000000
ENDCHAR
STARTCHAR plus
ENCODING 43
SWIDTH 607 0
DWIDTH 17 0
BBX 17 17 0 1
BITMAP
000000566540000000
000000CFFFB0000000
000000BFFFB0000000
000000BFFFA0000000
000000AFFFA0000000
000000AFFF90000000
8DCCBBDFFFC7655420
9FFFFFFFFFFFFFFFA0
AFFFFFFFFFFFFFFF90
AFFFFFFFFFFFFFFF80
7A9998CFFF96555420
0000008FFF50000000
0000007FFF50000000
0000007FFF40000000
0000007FFF30000000
0000006FFF30000000
0000004CDE20000000
ENDCHAR
STARTCHAR comma
ENCODING 44
SWIDTH 226 0
DWIDTH 6 0
BBX 7 8 0 -6
BITMAP
08EEA100
6FFFFC00
AFFFFF10
6FFFFE00
03AFF900
009FE200
00ED3000
05710000
ENDCHAR
STARTCHAR hyphen
ENCODING 45
SWIDTH 549 0
DWIDTH 15 0
BBX 13 6 1 7
BITMAP
02100000000000
3FFFFEDCBA9850
3FFFFFFFFFFFA0
4FFFFFFFFFFF90
4FFFFFFFFFFF80
4BAA9887765520
ENDCHAR
STARTCHAR period
ENCODING 46
SWIDTH 226 0
DWIDTH 6 0
BBX 6 6 0 -3
BITMAP
003410
1CFFE4
8FFFFE
AFFFFE
3EFFF7
015630
ENDCHAR
STARTCHAR slash
ENCODING 47
SWIDTH 600 0
DWIDTH 17 0
BBX 19 27 -1 -2
BITMAP
00000000000000720000
00000000000003FE7000
0000000000000CFFFC30
0000000000006FFFFF50
000000000001DFFFFB00
000000000008FFFFE200
00000000002FFFFF7000
0000000000AFFFFD0000
0000000004FFFFF40000
000000000CFFFF900000
000000006FFFFE100000
00000001EFFFF6000000
00000009FFFFB0000000
0000003FFFFF20000000
000000BFFFF800000000
000005FFFFD100000000
00000DFFFF4000000000
00007FFFFA0000000000
0001EFFFE20000000000
0009FFFF600000000000
003FFFFC000000000000
00CFFFF3000000000000
05FFFF90000000000000
1DFFFD10000000000000
8FFFF500000000000000
4DFFB000000000000000
007E2000000000000000
ENDCHAR
STARTCHAR zero
ENCODING 48
SWIDTH 740 0
DWIDTH 21 0
BBX 21 18 0 0
BITMAP
0000001589A98510000000
00003AFFFFFFFFE8100000
0008FFFFFFFFFFFFD30000
008FFFFF83127EFFFE3000
04FFFFE3000003EFFFD000
0CFFFF300000007FFFF600
2FFFFA000000001FFFFB00
5FFFF6000000000CFFFF00
6FFFF4000000000AFFFF20
6FFFF4000000000AFFFF20
5FFFF6000000000BFFFF00
2FFFF9000000000EFFFC00
0BFFFE100000005FFFF600
04FFFF90000001DFFFD000
009FFFF910005DFFFE3000
0009FFFFFCCEFFFFE30000
00005DFFFFFFFFF9100000
00000059CDEDA720000000
ENDCHAR
STARTCHAR one
ENCODING 49
SWIDTH 503 0
DWIDTH 14 0
BBX 18 22 -2 -1
BITMAP
000000000003200000
000000158BEF500000
0037ADFFFFFF500000
39CFFFFFFFFF400000
000137AEFFFF400000
0000000CFFFF300000
0000000BFFFF300000
0000000AFFFF200000
0000000AFFFF200000
00000009FFFF100000
00000008FFFF100000
00000008FFFF000000
00000007FFFF000000
00000007FFFF000000
00000006FFFE000000
00000005FFFE000000
00000005FFFD000000
00000004FFFD000000
00000003FFFC000000
0000017DFFFFA30000
00028EFFFFFFFFB400
017CCCCCCCCCCDDD92
ENDCHAR
STARTCHAR two
ENCODING 50
SWIDTH 638 0
DWIDTH 18 0
BBX 18 23 -1 -1
BITMAP
024000000000000000
00D100000011000000
00DA0017CFFFD93000
00BF75EFFFFFFFF900
009FFFFFFDCFFFFFA0
007FFFFB30018FFFF6
005FFFA0000009FFFC
003FFD10000004FFFF
001FF400000004FFFF
000EC000000008FFFD
000C600000002EFFF8
000A10000003DFFFD1
00050000029FFFFC23
00000003AFFFFE7009
0000008FFFFE81006A
00002CFFFE710000DA
0004EFFFB2000006F9
003EFFFB0000000DF8
01DFFFD10000006FF7
08FFFFDBCCDDEEFFF6
0EFFFFFFFFFFFFFFF6
3FFFFFFFFFFFFFFFF5
1456677899ABBCCDE4
ENDCHAR
STARTCHAR three
ENCODING 51
SWIDTH 620 0
DWIDTH 17 0
BBX 18 25 -1 -3
BITMAP
020000000000000000
090000000000000000
099000169A97300000
05F408FFFFFFFC4000
02FECFFFFFFFFFF700
00EFFFF9547EFFFF50
00BFFD200001DFFFD0
008FE20000003FFFF2
004F600000001FFFF3
001D000000003FFFF1
000600000001DFFFC0
0000002A87AEFFFE30
0000003FFFFFFFFA00
0000003FFFFFFFFF90
00030013348EFFFFF3
003800000003EFFFF9
007E100000008FFFFB
00AF700000006FFFFB
00EFF4000000BFFFF8
03FFFF710019FFFFE2
06FEFFFEBCEFFFFF50
0AE37FFFFFFFFFD400
0E50029EFFFFB61000
390000002320000000
300000000000000000
ENDCHAR
STARTCHAR four
ENCODING 52
SWIDTH 606 0
DWIDTH 17 0
BBX 19 24 -2 -2
BITMAP
00000000000000300000
00000000000001D00000
0000000000001CE00000
000000000000AFE00000
000000000008FFD00000
00000000005FFFD00000
0000000003FFFFD00000
000000002EFFFFC00000
00000001CFFFFFC00000
0000000BFFFFFFC00000
0000008FFFCFFFB00010
000006FFF68FFFB00350
00004FFF808FFFB00B40
0002EFF9008FFFA05F40
001DFFB0008FFFA1DF30
00BFFFDDEEFFFFFFFF30
09FFFFFFFFFFFFFFFF20
16666555548FFFA3CF20
00000000005FFF806F20
00000000005FFF701E10
00000000004FFF700810
00000000029FFF910200
00000004BFFFFFFD6000
000016CDDDDDDDDDCA20
ENDCHAR
STARTCHAR five
ENCODING 53
SWIDTH 610 0
DWIDTH 17 0
BBX 17 23 0 -2
BITMAP
000000000001357900
000013579BEFFFFC00
79BDFFFFFFFFFFFA00
DFFFFFFFFFFFFFF800
AFFFFECB97642CF700
7FFF7000000007F500
5FFF8000000001F300
2FFF9002210000B100
0EFFEDFFFFD9305000
0CFFFFFFFFFFFA1000
09FFFECCFFFFFFC000
06FC400018FFFFF800
03800000006FFFFE00
00000000000DFFFF20
03000000000AFFFF30
09600000000CFFFF20
0CF50000003FFFFE00
0EFF910003DFFFF900
1FFFFEB9BFFFFFE100
4FEDFFFFFFFFFF5000
6E41BFFFFFFFD40000
7400049CDDB6100000
100000000000000000
ENDCHAR
STARTCHAR six
ENCODING 54
SWIDTH 619 0
DWIDTH 17 0
BBX 18 25 0 -2
BITMAP
000000000000006000
00000000000002B000
00000000000007D000
0000003675100CE000
00002BFFFFE73FF100
0004EFFFFFFFFFF300
002EFFFFFFFFFFF500
00BFFFFB3149FFF600
03FFFFB000003CF800
0AFFFF30000001BA00
1FFFFE69ABA8500800
5FFFFFFFFFFFFE6000
8FFFFFFEBAEFFFF800
CFFFFFA1000AFFFF50
DFFFFC000000DFFFC0
EFFFF30000006FFFF1
FFFFE00000003FFFF3
DFFFD00000001FFFF3
BFFFE00000002FFFF2
7FFFF20000005FFFE0
2FFFF7000000BFFF90
08FFFF400007FFFE10
00BFFFF977CFFFF400
0009FFFFFFFFFC3000
000028BDEEC9400000
ENDCHAR
STARTCHAR seven
ENCODING 55
SWIDTH 598 0
DWIDTH 17 0
BBX 19 22 0 -2
BITMAP
DFEDDCBBA98876654410
8FFFFFFFFFFFFFFFFE10
3FFFFFFFFFFFFFFFF900
0DFFB456789DFFFFF300
09FF6000000DFFFFC000
04FF2000002FFFFF5000
00ED0000005FFFFE0000
00A90000009FFFF80000
0056000000DFFFF20000
0012000002FFFFB00000
0000000005FFFF500000
0000000009FFFE000000
000000000DFFF8000000
000000002FFFF2000000
000000005FFFB0000000
000000009FFF50000000
00000000DFFD00000000
00000002FFF800000000
0000005DFFF810000000
00005DFFFFFFD6000000
005CFFFFFFFFFFD50000
00112223344556675000
ENDCHAR
STARTCHAR eight
ENCODING 56
SWIDTH 642 0
DWIDTH 18 0
BBX 19 23 0 -3
BITMAP
0000027ACCA720000000
00019FFFFFFFFA200000
002DFFFFBAEFFFE30000
00CFFFE3002CFFFD1000
05FFFF600003FFFF7000
09FFFF100000DFFFB000
0AFFFE000000BFFFC000
09FFFF000000CFFFB000
05FFFF500003FFFF7000
00DFFFD3002CFFFE1000
002EFFFFDDFFFFF40000
00AFFFFFFFFFFFFB1000
0AFFFFFD99DFFFFFC000
5FFFFF910007FFFFF700
BFFFFB0000009FFFFE00
EFFFF50000003FFFFF20
EFFFF50000003FFFFF20
CFFFF90000007FFFFE00
6FFFFF300001EFFFF800
0BFFFFE5004DFFFFC100
01AFFFFFEEFFFFFB1000
0004BFFFFFFFFC500000
00000147887510000000
ENDCHAR
STARTCHAR nine
ENCODING 57
SWIDTH 610 0
DWIDTH 17 0
BBX 17 24 0 -4
BITMAP
000049DFFEC7100000
002CFFFFFFFFE60000
02EFFFE978EFFF8000
0CFFFD20002DFFF500
6FFFF5000006FFFD00
BFFFE0000001FFFF50
DFFFD0000000DFFF90
FFFFC0000000CFFFC0
EFFFE0000000EFFFE0
BFFFF6000007FFFFE0
5FFFFE20005EFFFFD0
0BFFFFE98BFFFFFFC0
01BFFFFFFFFFFFFF90
0107EFFFFFFDFFFF60
073004799736FFFF20
06E30000000CFFFB00
04FE6000008FFFF400
02FFFD634AFFFFB000
00FFFFFFFFFFFD1000
00DFEFFFFFFFD20000
00BF44BFFFE8100000
009C00013200000000
007600000000000000
003000000000000000
ENDCHAR
STARTCHAR colon
ENCODING 58
SWIDTH 223 0
DWIDTH 6 0
BBX 6 13 0 -3
BITMAP
026510
5FFFE2
DFFFFB
EFFFFA
4EFFD2
003300
000000
014300
4EFFC1
DFFFFA
EFFFFA
6FFFE4
026610
ENDCHAR
STARTCHAR semicolon
ENCODING 59
SWIDTH 228 0
DWIDTH 6 0
BBX 6 16 0 -6
BITMAP
016610
4EFFE3
CFFFFB
CFFFFB
3DFFD3
003300
000000
000000
1AEE80
BFFFF7
EFFFFB
AFFFF9
05CFF5
00DFB0
03FB10
075000
ENDCHAR
STARTCHAR less
ENCODING 60
SWIDTH 563 0
DWIDTH 16 0
BBX 17 19 0 0
BITMAP
000000000000001200
00000000000005E900
000000000003CFFD00
00000000019FFFFF20
000000006EFFFFFF60
0000004CFFFFFFFE60
00002AFFFFFFFF8100
0007EFFFFFFF920000
04DFFFFFFFA2000000
9FFFFFFFA200000000
18FFFFF90000000000
003CFFFF9000000000
00007EFFFC20000000
000002BFFFE3000000
00000005EFFF600000
0000000019FFF90000
00000000004DFFC200
0000000000008FF600
00000000000002C400
ENDCHAR
STARTCHAR equal
ENCODING 61
SWIDTH 531 0
DWIDTH 15 0
BBX 15 11 0 2
BITMAP
DFEDCCBA99876630
EFFFFFFFFFFFFF90
EFFFFFFFFFFFFF80
EFFFFFFFFFFFFF70
AAA9988777665520
0000000000000000
8ABBCCCDDEEFFF90
DFFFFFFFFFFFFF90
EFFFFFFFFFFFFF80
FFFFFFFFFFFFFF80
0112344567889A50
ENDCHAR
STARTCHAR greater
ENCODING 62
SWIDTH 576 0
DWIDTH 16 0
BBX 17 19 0 0
BITMAP
030000000000000000
0EB300000000000000
3FFF91000000000000
7FFFFE600000000000
BFFFFFFC3000000000
AFFFFFFFF910000000
03BFFFFFFFE7000000
0004CFFFFFFFD40000
000004CFFFFFFFA200
00000005DFFFFFFE40
000000001DFFFFE500
00000002CFFFF91000
0000004EFFFD300000
000007FFFF70000000
0001AFFFB200000000
002CFFE60000000000
04EFFA100000000000
0BFD40000000000000
098100000000000000
ENDCHAR
STARTCHAR question
ENCODING 63
SWIDTH 592 0
DWIDTH 17 0
BBX 17 26 0 -1
BITMAP
002000000000000000
03A000000000000000
06F301121000000000
0AFEEFFFFEB6100000
0DFFFFFFFFFFE70000
1FFA30026DFFFFA000
4F700000009FFFF700
89000000000AFFFE10
800000000003FFFF50
200000000001FFFF60
000000000003FFFF60
00000000000AFFFF30
00002000019FFFFD00
0002FC879EFFFFF300
0004FFFFFFFFFD4000
0006FFFFFFDB610000
0008FFFE1000000000
000AFFF90000000000
000CFFF20000000000
0006AEB00000000000
000000100000000000
04BCA4000000000000
3FFFFF500000000000
7FFFFFA00000000000
2EFFFF700000000000
028CC7000000000000
ENDCHAR
STARTCHAR at
ENCODING 64
SWIDTH 792 0
DWIDTH 22 0
BBX 23 21 0 -2
BITMAP
0000000269BCCA8410000000
000005BFFFFFFFFFE7100000
0002BFFFEA7657AFFFD30000
002DFFF710000002AFFE3000
01EFFE3017ACC94009FFE100
0AFFE304EFFEFFF800DFFA00
3FFF701EFC103EFF306FFF20
9FFF105FFE0009FF801FFF70
CFFB005FFE0006FFA00CFFB0
EFF90007930006FFA00BFFD0
FFF80005BEFEDDFF900AFFE0
EFFA006FFFA8AEFF800BFFD0
CFFC00DFF9000CFF600DFFA0
9FFF10EFF9000EFF500FFF60
4FFF709FFFA9AFFF403FFF10
0BFFF207EFFFDFFF308FF800
02EFFD2002210DFF95FFC000
003EFFE7000003EFFFFB1000
00019FFFE841001798400000
0000016ACEFFEB7000000000
000000000001000000000000
ENDCHAR
STARTCHAR A
ENCODING 65
SWIDTH 788 0
DWIDTH 22 0
BBX 33 26 -5 -7
BITMAP
00000005AA998776520000000000000000
0000000029FFFFFFFB0000000000000000
000000000029FFFFFF4000000000000000
00000000000029FFFFB000000000000000
00000000000001EFFFF400000000000000
00000000000009FFFFFB00000000000000
0000000000002FFFFFFF30000000000000
0000000000009FE7FFFFB0000000000000
000000000002FF70DFFFF3000000000000
00000000000AFE106FFFFA000000000000
00000000003FF6000EFFFF300000000000
0000000000BFD00007FFFFA00000000000
0000000004FFEDCCBBFFFFF30000000000
000000000BFFFFFFFFFFFFFA0000000000
000000004FFFEEDDCBBFFFFF2000000000
00000000CFC00000000BFFFFA000000000
00000005FF4000000004FFFFF200000000
0000006DFC0000000000DFFFF900000000
00028EFFFF81000000006FFFFF20000000
04AFFFFFFFFD400000001EFFFF90000000
13456789ABCDE910000008FFFFFD840000
0000000000000000000006FFFFFFFFE920
000000000000000000004FFFFFFEB73000
00000000000000000003EFFEB730000000
0000000000000000003DB7300000000000
0000000000000000002000000000000000
ENDCHAR
STARTCHAR B
ENCODING 66
SWIDTH 774 0
DWIDTH 22 0
BBX 25 23 -3 -4
BITMAP
59988877766655431000000000
05DFFFFFFFFFFFFFFEB7200000
0018FFFFFFFFFFFFFFFFFA3000
00002BFFFFD76668BEFFFFF600
000003FFFFB00000005DFFFF30
000002FFFFC000000002FFFF90
000001FFFFC000000000EFFFA0
000000EFFFD000000006FFFF60
000000DFFFD0000014AFFFFC00
000000CFFFFBAABDFFFFFFB100
000000AFFFFFFFFFFFFFD60000
0000009FFFFFFFFFFFFE500000
0000008FFFF8579CFFFFFC2000
0000007FFFF500002AFFFFD100
0000005FFFF6000000AFFFF800
0000004FFFF60000006FFFFC00
0000003FFFF7000001CFFFFB00
0000001FFFF700016EFFFFF500
0000001FFFFA57BFFFFFFE5000
000005DFFFFFFFFFFFFD710000
0003BFFFFFFFFFEC9630000000
019FFEDB986431000000000000
04421000000000000000000000
ENDCHAR
STARTCHAR C
ENCODING 67
SWIDTH 766 0
DWIDTH 21 0
BBX 22 23 0 -2
BITMAP
0000000000000000000042
00000000012321000001D0
00000038CFFFFFC6100BC0
00002BFFFFFFFFFFD38F90
0004EFFFFFFDCDFFFFFF70
004EFFFFE720002AFFFF50
01DFFFFD200000006FFF20
08FFFFE30000000008FF00
0DFFFF800000000000DC00
3FFFFF2000000000006A00
5FFFFE0000000000000600
6FFFFC0000000000000000
6FFFFC0000000000000000
4FFFFD0000000000000000
2FFFFF1000000000000200
0CFFFF6000000000004600
07FFFFD10000000000A900
00DFFFF90000000004FC00
003FFFFFA10000005EFF00
0005FFFFFEA6557CFFFF30
00003DFFFFFFFFFFFE5D60
0000006DFFFFFFFE920490
0000000026798741000050
ENDCHAR
STARTCHAR D
ENCODING 68
SWIDTH 833 0
DWIDTH 23 0
BBX 27 20 -3 -1
BITMAP
4ABBAAAAAAAAAAAA985100000000
005BFFFFFFFFFFFFFFFFB4000000
000039FFFFFFFFFFFFFFFFA10000
00000019FFFFF200149FFFFD2000
00000004FFFFF1000004EFFFC000
00000003FFFFF10000007FFFF600
00000002FFFFF00000000EFFFD00
00000001FFFFE00000000AFFFF20
00000000EFFFD000000008FFFF40
00000000DFFFD000000007FFFF50
00000000CFFFC000000008FFFF40
00000000BFFFB000000009FFFF30
00000000AFFFA00000000BFFFE00
000000009FFFA00000000EFFFA00
000000008FFF900000007FFFF300
000000008FFF80000004FFFFA000
000000009FFF943445AFFFFC1000
0000003BFFFFFFFFFFFFFF900000
00002AFFFFFFFFFFFFFC82000000
0017CCBA98766554321000000000
ENDCHAR
STARTCHAR E
ENCODING 69
SWIDTH 781 0
DWIDTH 22 0
BBX 24 22 -3 -1
BITMAP
000000000000000000000122
000000012345678ABCDEFFFB
16ABCDEFFFFFFFFFFFFFFFFA
0038DFFFFFFFFDCBA976DFF9
0000038EFFFF500000007FF9
0000000BFFFF500001001EF8
0000000BFFFF4000080008F7
0000000AFFFF40005A0001F7
0000000AFFFF4000DA000096
00000009FFFF3006F9000025
00000008FFFF301EF9000001
00000008FFFFCCDFF9000020
00000007FFFFFFFFF8000070
00000007FFFFFFFFF80000C0
00000006FFFF214FF80003E0
00000006FFFF1008F70008E0
00000005FFFF1000D7000DE0
00000005FFFF100036003FE0
00000004FFFF000001008FE0
0000027DFFFFBBBBBBCCEFF0
0004AFFFFFFFFFFFFFFFFFF0
028AA9999999998888888870
ENDCHAR
STARTCHAR F
ENCODING 70
SWIDTH 731 0
DWIDTH 20 0
BBX 22 23 -2 -2
BITMAP
0000000000000000000001
0000000012356789ACDEFA
579ABCEFFFFFFFFFFFFFF9
04AEFFFFFFFFFECBA8CFF9
00005AFFFFF30000005FF9
000000EFFFF20000000EF9
000000EFFFF200022009F9
000000DFFFF1000A2003F9
000000DFFFF1003F2000C8
000000CFFFF100CF200078
000000CFFFF005FF100018
000000BFFFFCDFFF100003
000000BFFFFFFFFF100000
000000BFFFFFFFFF000000
000000AFFFE009FF000000
000000AFFFE001EF000000
0000009FFFD0007F000000
0000009FFFD0000C000000
0000008FFFD00003000000
0000008FFFD00000000000
000039EFFFFB4000000000
005BFFFFFFFFFD71000000
0688888888888888200000
ENDCHAR
STARTCHAR G
ENCODING 71
SWIDTH 828 0
DWIDTH 23 0
BBX 26 24 0 -2
BITMAP
00000000000000000000100000
00000000000000000003A00000
0000000002455310003EA00000
0000004AEFFFFFFB43EF900000
00003CFFFFFFFFFFFFFF700000
0006FFFFFFEBACFFFFFF600000
005FFFFFD5000019FFFF500000
01EFFFFD100000006FFF400000
08FFFFF30000000006FF200000
0EFFFFA00000000000AF100000
3FFFFF5000000000002E000000
5FFFFF20000000000007000000
6FFFFF00005777777767666662
6FFFFF000004AFFFFFFFFFE820
5FFFFF200000016CFFFFD71000
2FFFFF5000000000AFFFA00000
0CFFFFA0000000009FFFB00000
06FFFFF300000000BFFFD00000
00DFFFFD10000001EFFFE00000
003FFFFFD300002BFFFFF00000
0004EFFFFFC99BFFFFAFF20000
00002BFFFFFFFFFFD407F30000
00000049DFFFFDA40000540000
00000000001100000000000000
ENDCHAR
STARTCHAR H
ENCODING 72
SWIDTH 797 0
DWIDTH 22 0
BBX 28 23 -3 -3
BITMAP
0000000000003999999998888860
000000000000017DFFFFFFFFC500
27776666665555515CFFFFC40000
029FFFFFFFFFE92006FFFF800000
00028EFFFFE8100005FFFF700000
000005FFFFA0000005FFFF700000
000004FFFF90000004FFFF700000
000004FFFF90000004FFFF600000
000003FFFF90000004FFFF600000
000003FFFF80000003FFFF500000
000002FFFF80000003FFFF500000
000002FFFFFFFFFFFFFFFF500000
000001FFFFFFFFFFFFFFFF400000
000001FFFFECB98654FFFF400000
000001FFFF70000001FFFF300000
000000FFFF70000001FFFF300000
000000FFFF70000000FFFF300000
000000EFFF60000001FFFF300000
000000EFFF6000039EFFFFFA4000
000000DFFF6005BFFFFFFFFFFD82
000049FFFFC72000000000000000
027DFFFFFFFFFC61000000000000
1555555555555555100000000000
ENDCHAR
STARTCHAR I
ENCODING 73
SWIDTH 445 0
DWIDTH 12 0
BBX 18 23 -3 -3
BITMAP
144444433333322222
028EFFFFFFFFFFFE82
00006CFFFFFFFB5000
0000003FFFFF400000
0000000EFFFF200000
0000000DFFFF100000
0000000DFFFF100000
0000000CFFFF000000
0000000BFFFF000000
0000000BFFFF000000
0000000AFFFE000000
0000000AFFFE000000
00000009FFFD000000
00000008FFFD000000
00000008FFFC000000
00000007FFFC000000
00000007FFFC000000
00000006FFFB000000
00000005FFFB000000
00000005FFFA000000
0000017DFFFE930000
0004AFFFFFFFFFC710
005777777777777762
ENDCHAR
STARTCHAR J
ENCODING 74
SWIDTH 718 0
DWIDTH 20 0
BBX 26 25 -3 -4
BITMAP
00000000000000000000013684
0000000000000002579BEFFA20
000000001468BDFFFFFFFC3000
00000159CEFFFFFFFFFD500000
000000000013569FFFFB000000
000000000000000FFFFD000000
000000000000000DFFFF000000
000000000000000AFFFF200000
0000000000000007FFFF400000
0000000000000004FFFF600000
0000000000000002FFFF800000
0000000000000000FFFFA00000
0000000000000000DFFFC00000
0000000000000000CFFFC00000
0000000000000000BFFFD00000
1111111111110000BFFFD00000
4BFFFFFFFFD40000CFFFC00000
004CFFFFD6000000DFFFA00000
00007FFF30000001FFFF700000
00002FFF60000005FFFF200000
00000BFFD000001DFFFB000000
000003FFFC2003CFFFE2000000
0000006FFFFEEFFFFE30000000
00000004CFFFFFFE8100000000
00000000026776300000000000
ENDCHAR
STARTCHAR K
ENCODING 75
SWIDTH 934 0
DWIDTH 26 0
BBX 34 24 -2 -3
BITMAP
0001122344556778500000000000000000
39EFFFFFFFFFFF93000000000000000000
0016BFFFFFFD71017CDDDDDDDDDDD94000
000002FFFFF40000017DFFFFFFD8200000
000000FFFFF400000003EFFFA400000000
000000EFFFF30000019FFFC30000000000
000000DFFFF300006EFFE7000000000000
000000CFFFF2003CFFFB20000000000000
000000BFFFF219FFFE6000000000000000
000000BFFFF8EFFFF70000000000000000
000000AFFFFFFFFFFF3000000000000000
0000009FFFFFB37FFFE200000000000000
0000008FFFF4000BFFFC10000000000000
0000007FFFE00002EFFFA0000000000000
0000007FFFE000005FFFF7000000000000
0000006FFFD0000009FFFF500000000000
0000005FFFD0000001DFFFE30000000000
0000004FFFD00000003FFFFD1000000000
0000007FFFE400000008FFFFB000000000
00016DFFFFFFE8300000CFFFF900000000
018EFFFFFFFFFFFD83002EFFFF71000000
01111111111122222215CFFFFFFE930000
000000000000000028EFFFFFFFFFFFC710
0000000000000000444444444555555551
ENDCHAR
STARTCHAR L
ENCODING 76
SWIDTH 712 0
DWIDTH 20 0
BBX 23 22 -3 0
BITMAP
16CEFFFFFFFFFFFFE8200000
00039EFFFFFFFFD610000000
0000005DFFFFD40000000000
0000000BFFFF900000000000
0000000AFFFF900000000000
00000009FFFF900000000000
00000008FFFF800000000000
00000008FFFF800000000000
00000007FFFF800000000000
00000006FFFF800000000010
00000005FFFF700000000070
00000004FFFF7000000002B0
00000004FFFF7000000008B0
00000003FFFF700000000DB0
00000002FFFF600000004FB0
00000001FFFF60000000AFB0
00000000FFFF60000001FFB0
00000000FFFF60000007FFB0
00000001EFFF9554433DFFB0
0000029EFFFFFFFFFFFFFFB0
00029FFFFFFFFFFFFFFFFEA0
016BAA988766544322100000
ENDCHAR
STARTCHAR M
ENCODING 77
SWIDTH 1033 0
DWIDTH 29 0
BBX 33 22 -2 -1
BITMAP
0000000000000000000000144332210000
5BDDCCCCCCC80000000000AFFFFFFFFA40
005BFFFFFFFF3000000003FFFFFFD72000
000039FFFFFFA00000000BFFFFF8000000
000000EFFFFFF20000005FFFFFF6000000
000000DFFFFFFA000000DFFFFFF5000000
000000CFFFFFFF200006FFFFFFF4000000
000000BFFFFFFFA0001EFFFFFFF4000000
000000AFFDFFFFF2008FF8FFFFF3000000
0000008FF8DFFFF902EFE2FFFFF2000000
0000007FF85FFFFF29FF80FFFFF1000000
0000006FF80BFFFFBFFE10FFFFF1000000
0000005FF903FFFFFFF800FFFFF0000000
0000004FF9009FFFFFE100FFFFE0000000
0000003FFA001EFFFF8000FFFFE0000000
0000002FFB0007FFFF1000FFFFD0000000
0000001FFB0000DFF80000FFFFC0000000
0000000FFC00005FF10000FFFFB0000000
0000000DFC00000B900001FFFFB0000000
0000016EFE72000320017EFFFFFD820000
0026BFFFFFFFD840006CDEEEFFFFFFC720
38BBBBBBBBBBBBBA610000000000111220
ENDCHAR
STARTCHAR N
ENCODING 78
SWIDTH 840 0
DWIDTH 24 0
BBX 30 23 -3 -2
BITMAP
000000000000012223333444555561
05CDCCCCCBBB305BFFFFFFFFFFF920
0016DFFFFFFFE20028EFFFFFF92000
000005CFFFFFFC000005CFFB100000
0000000BFFFFFF9000002FF9000000
0000000AFFFFFFF600002FF8000000
0000000AFFFFFFFF40002FF8000000
0000000AFFAFFFFFE2002FF8000000
0000000AFF1BFFFFFC001FF7000000
0000000AFF11DFFFFFA01FF7000000
0000000AFF102EFFFFF71FF7000000
0000000AFF1004FFFFFF5FF6000000
0000000AFF20005FFFFFEFF6000000
0000000AFF200008FFFFFFF6000000
0000000AFF300000AFFFFFF5000000
0000000AFF3000000BFFFFF5000000
0000000AFF40000001DFFFF5000000
0000000BFF700000002EFFF5000000
000017EFFFFE83000004FFF4000000
0029EFFFFFFFFFC710005FF4000000
17CCCCCCCCCCDDDDD83008F4000000
0000000000000000000000A3000000
000000000000000000000001000000
ENDCHAR
STARTCHAR O
ENCODING 79
SWIDTH 808 0
DWIDTH 23 0
BBX 23 19 0 -1
BITMAP
000000000133320000000000
0000016BEFFFFFEA50000000
00018EFFFFFFFFFFFD400000
002CFFFFFD978CFFFFF70000
00CFFFFE5000005FFFFF6000
08FFFFE300000005FFFFE200
0EFFFF6000000000CFFFF800
3FFFFF10000000006FFFFD00
5FFFFC00000000003FFFFF00
6FFFFB00000000002FFFFF10
5FFFFC00000000003FFFFF00
3FFFFF10000000006FFFFC00
0DFFFF5000000000BFFFF700
06FFFFD100000004FFFFE100
00BFFFFB1000005EFFFF4000
001BFFFFE9668CFFFFE50000
00007EFFFFFFFFFFFB300000
0000017CFFFFFFD940000000
000000001345420000000000
ENDCHAR
STARTCHAR P
ENCODING 80
SWIDTH 746 0
DWIDTH 21 0
BBX 25 19 -3 -1
BITMAP
16CDDCCCBBAAA9876410000000
0006DFFFFFFFFFFFFFFC720000
000005BFFFFFEEEFFFFFFF8000
0000001FFFF70000259EFFF800
0000000FFFF700000002DFFF10
0000000FFFF800000000AFFF20
0000000FFFF800000006FFFC00
0000000FFFF9000248DFFFC200
0000000EFFFFEEFFFFFFC60000
0000000EFFFFFFFFEA72000000
0000000EFFFF65310000000000
0000000DFFFF10000000000000
0000000DFFFF10000000000000
0000000DFFFF20000000000000
0000000DFFFF20000000000000
0000000DFFFF30000000000000
000005DFFFFFD7100000000000
0004CFFFFFFFFFE93000000000
029DDCCCCCBBBBBAA710000000
ENDCHAR
STARTCHAR Q
ENCODING 81
SWIDTH 789 0
DWIDTH 22 0
BBX 25 28 0 -9
BITMAP
00000000001210000000000000
0000005ADFFFFFB71000000000
00005DFFFFFFFFFFE700000000
0009FFFFFEA9AEFFFFB0000000
008FFFFE600001BFFFFA000000
03FFFFF40000001CFFFF500000
09FFFF8000000004FFFFC00000
0EFFFF1000000000DFFFF20000
1FFFFD0000000000AFFFF40000
2FFFFC00000000009FFFF50000
1FFFFD00000000009FFFF50000
0EFFFF1000000000CFFFF20000
09FFFF5000000002FFFFD00000
03FFFFC000000009FFFF600000
009FFFFA0000008FFFFB000000
000BFFFFC7457DFFFFC1000000
00008FFFFFFFFFFFF910000000
0000039EFFFFFFFA3000000000
00000000356DFFF80000000000
000000000008FFFF2000000000
000000000004FFFFA000000000
000000000001FFFFFCA8641000
000000000000CFFFFFFFFFFC50
000000000006FFFFFFFEA62000
00000000008FFFFFC830000000
000000001AFFEA510000000000
00000001CB7300000000000000
00000003100000000000000000
ENDCHAR
STARTCHAR R
ENCODING 82
SWIDTH 826 0
DWIDTH 23 0
BBX 33 26 -2 -7
BITMAP
1110000000000000000000000000000000
3AFFFEEEDDCCBBA8630000000000000000
0029EFFFFFFFFFFFFFFB40000000000000
000017EFFFECBBCEFFFFFC200000000000
000000BFFFB0000026CFFFD10000000000
000000BFFFC000000009FFF50000000000
000000BFFFC000000006FFF50000000000
000000BFFFD00000005EFFC10000000000
000000AFFFD112469EFFFA100000000000
000000AFFFFFFFFFFFFB40000000000000
000000AFFFFFFFFFFF9000000000000000
000000AFFFF7313FFFF400000000000000
0000009FFFF50009FFFD10000000000000
0000009FFFF50002FFFF90000000000000
0000009FFFF600008FFFF4000000000000
0000009FFFF600001EFFFE100000000000
000000AFFFF7000007FFFFA00000000000
00005DFFFFFFA40000DFFFF50000000000
004CFFFFFFFFFFD7106FFFFE2000000000
17BAAAAA99999888720CFFFFDAAAAA9710
00000000000000000004FFFFFFFFFA4000
00000000000000000000EFFFFFD7100000
0000000000000000000AFFFFA400000000
0000000000000000009FFD710000000000
000000000000000008FA40000000000000
0000000000000000471000000000000000
ENDCHAR
STARTCHAR S
ENCODING 83
SWIDTH 661 0
DWIDTH 19 0
BBX 19 23 0 -3
BITMAP
00000000000000000300
00000024432000002B00
0005BEFFFFFE9401CB00
01BFFFFFFFFFFFCBF900
0CFFFD510149EFFFF700
5FFFE10000001AFFF600
9FFFE0000000008FF400
AFFFFC4000000006F200
8FFFFFFEA6200000A100
2FFFFFFFFFFD83000000
05EFFFFFFFFFFFB20000
002AFFFFFFFFFFFF6000
000017BEFFFFFFFFF500
0030000037DFFFFFFE00
00B000000006EFFFFF20
01F6000000003FFFFF20
02FF500000000EFFFE00
04FFF92000008FFFF700
05FFFFFC98AEFFFF9000
07E28EFFFFFFFFD50000
08800159BCCA73000000
09100000000000000000
04000000000000000000
ENDCHAR
STARTCHAR T
ENCODING 84
SWIDTH 754 0
DWIDTH 21 0
BBX 19 20 1 -1
BITMAP
ACCBBBBBAAAAA9999980
CFFFFFFFFFFFFFFFFFD0
AFFCAABFFFFFBCCDFFC0
9FF2002FFFFD0004FFA0
8FC0002FFFFD0000EF80
7F70001FFFFC00009F60
5F20001FFFFC00004F40
4C00001FFFFB00000E30
3700000FFFFB00000A10
2200000FFFFA00000400
0000000EFFFA00000000
0000000EFFF900000000
0000000EFFF900000000
0000000DFFF800000000
0000000DFFF800000000
0000000CFFF800000000
0000004EFFFA10000000
00004BFFFFFFE7100000
004CFFFFFFFFFFE81000
02666666677777777100
ENDCHAR
STARTCHAR U
ENCODING 85
SWIDTH 725 0
DWIDTH 20 0
BBX 26 20 -3 -1
BITMAP
00000000000000166655554441
16BCBA9876543203AFFFFFFD50
0005CFFFFFFFA40003CFFE7100
00000AFFFFA10000005FFB0000
00000AFFFF600000004FFB0000
00000BFFFF600000003FFA0000
00000BFFFF600000003FFA0000
00000CFFFF500000002FF90000
00000CFFFF500000002FF80000
00000DFFFF500000001FF80000
00000DFFFF500000000FF70000
00000DFFFF500000000FF70000
00000DFFFF500000000FF60000
00000CFFFF700000002FF40000
000009FFFFD00000007FF10000
000003FFFFF6000002EFB00000
000000AFFFFF81016EFF300000
0000001CFFFFFFFFFFF7000000
000000019FFFFFFFFD40000000
000000000269BBA74000000000
ENDCHAR
STARTCHAR V
ENCODING 86
SWIDTH 786 0
DWIDTH 22 0
BBX 30 23 -4 -2
BITMAP
000000000000000100000000000000
0000000000036AB300000000000000
000000148BEFF80016531000000000
00259CFFFFFD4000019FFDB9641000
28CEFFFFFFF300000004DFFFFFFE81
000013BFFFF9000000001BFFD95100
0000003FFFFF100000001EF9000000
0000000BFFFF700000008FF2000000
00000004FFFFE0000001EF80000000
00000000BFFFF6000008FE10000000
000000004FFFFC00002FF800000000
000000000CFFFF40009FE100000000
0000000005FFFFB002FF7000000000
0000000000CFFFF20AFE1000000000
00000000005FFFF93FF70000000000
00000000000DFFFFBFD00000000000
000000000006FFFFFF600000000000
000000000000DFFFFD000000000000
0000000000006FFFF6000000000000
0000000000000DFFD0000000000000
00000000000006FF50000000000000
00000000000001EC00000000000000
000000000000007400000000000000
ENDCHAR
STARTCHAR W
ENCODING 87
SWIDTH 1026 0
DWIDTH 29 0
BBX 37 22 -4 -3
BITMAP
00000000000002343000002000000000000000
1345678ABCDEFFD50000003ADCA86531000000
15AEFFFFFFFFD6000016000029FFFFFFECA830
000049FFFFF80000008E10000018EFFFD84000
000000CFFFF7000001EF80000000BFC2000000
0000005FFFFD000007FFF2000002FF60000000
0000000EFFFF30000DFFF9000008FF10000000
00000008FFFF90005FFFFF30000DFA00000000
00000001FFFFE000CFFFFFB0004FF400000000
00000000AFFFF504FFFFFFF400AFD000000000
000000003FFFFA0BFFFFFFFC01FF7000000000
000000000CFFFF5FFF9DFFFF66FF2000000000
0000000006FFFFEFFF26FFFFDCFB0000000000
0000000001EFFFFFF900DFFFFFF50000000000
00000000008FFFFFF2007FFFFFE00000000000
00000000002FFFFFA0001EFFFF800000000000
00000000000AFFFF300007FFFF200000000000
000000000004FFFA000001EFFC000000000000
000000000000DFF30000008FF6000000000000
0000000000006FB00000001EE1000000000000
0000000000001E400000000990000000000000
00000000000006000000000230000000000000
ENDCHAR
STARTCHAR X
ENCODING 88
SWIDTH 860 0
DWIDTH 24 0
BBX 30 20 -3 -2
BITMAP
000000000000012330000000000000
00345679ABCDFFE710000000122310
0026AEFFFFFFD7103ACCDEFFFFA300
0000004AFFFFC00002AFFFFF920000
00000000BFFFF900005FFF92000000
000000001DFFFF7007FFF500000000
0000000003FFFFF59FFE4000000000
00000000006FFFFFFFD20000000000
000000000009FFFFFC100000000000
000000000000CFFFFE200000000000
000000000007FFFFFFC00000000000
00000000009FFFFFFFF90000000000
000000001BFFF58FFFFF6000000000
00000002CFFD300BFFFFF300000000
0000003EFFC10001DFFFFD10000000
00004AFFFC0000003EFFFFB0000000
016CFFFFFFB2000005FFFFFB400000
28AABBCCDDDD60002AFFFFFFFD7100
0000000000000019FFFFFFFFFEED71
000000000000005554432211000000
ENDCHAR
STARTCHAR Y
ENCODING 89
SWIDTH 848 0
DWIDTH 24 0
BBX 30 21 -4 -2
BITMAP
000000000011234100000000000000
17ABBCDEEFFFFE6000000000000000
0039EFFFFFFFA10001665544322110
000005AFFFFF8000003BFFFFFFFE82
00000003EFFFF50000005EFFFC5000
000000004FFFFF3000001CFB300000
0000000006FFFFE20001CFB0000000
00000000007FFFFC101CFC10000000
000000000009FFFFA1CFD100000000
000000000000BFFFFEFE2000000000
0000000000001CFFFFE30000000000
00000000000002DFFF500000000000
00000000000000AFFF400000000000
00000000000000BFFF600000000000
00000000000000BFFF700000000000
00000000000000CFFF800000000000
00000000000000CFFFA00000000000
00000000000000DFFFB00000000000
00000000000002EFFFE61000000000
000000000004BFFFFFFFFA51000000
0000000005CEEEEDDDDDDDDC720000
ENDCHAR
STARTCHAR Z
ENCODING 90
SWIDTH 685 0
DWIDTH 19 0
BBX 20 18 0 0
BITMAP
00000000000000001112
5AABBBCCDDDEEFFFFFFA
4FFFFFFFFFFFFFFFFFC1
1FFFDCCBBAAAFFFFFE20
0BFF0000000BFFFFF500
07FC0000009FFFFF8000
03F9000007FFFFFB0000
00E700005FFFFFD10000
00A40003EFFFFF300020
0061002EFFFFF60000A0
001001CFFFFF900006B0
00000BFFFFFC00000DB0
00009FFFFFE200007FA0
0006FFFFFF400001EF90
004FFFFFF8000008FF80
03EFFFFFFFFFEEDFFF70
1DFFFFFFFFFFFFFFFF60
36667777777888888830
ENDCHAR
STARTCHAR bracketleft
ENCODING 91
SWIDTH 380 0
DWIDTH 11 0
BBX 12 27 1 -4
BITMAP
5FFEEDDCCC92
4FFFFFFFC500
4FFFFFB40000
3FFFF5000000
3FFFF3000000
3FFFF3000000
2FFFF3000000
2FFFF2000000
1FFFF2000000
1FFFF2000000
1FFFF2000000
0FFFF1000000
0FFFF1000000
0EFFF1000000
0EFFF1000000
0DFFF0000000
0DFFF0000000
0DFFF0000000
0CFFF0000000
0CFFF0000000
0BFFE0000000
0BFFE0000000
0BFFE0000000
0AFFE5000000
0AFFFFC50000
09FFFFFFC400
035555555520
ENDCHAR
STARTCHAR backslash
ENCODING 92
SWIDTH 680 0
DWIDTH 19 0
BBX 19 27 0 -2
BITMAP
00027000000000000000
007FF300000000000000
3CFFFC00000000000000
6FFFFF50000000000000
0BFFFFD1000000000000
02FFFFF8000000000000
008FFFFE200000000000
001DFFFFA00000000000
0004FFFFF40000000000
0000AFFFFC0000000000
00002EFFFF6000000000
000006FFFFE100000000
000000CFFFF800000000
0000003FFFFF20000000
00000009FFFFA0000000
00000001DFFFF4000000
000000005FFFFC000000
000000000BFFFF600000
0000000002EFFFE10000
00000000007FFFF90000
00000000000DFFFF2000
000000000004FFFFB000
0000000000009FFFF500
0000000000001EFFFD00
00000000000006FFFF70
00000000000000BFFC30
000000000000002E6000
ENDCHAR
STARTCHAR bracketright
ENCODING 93
SWIDTH 371 0
DWIDTH 10 0
BBX 12 27 -2 -4
BITMAP
29CCCDDEEFF4
005CFFFFFFF3
00004BFFFFF3
0000006FFFF2
0000004FFFF2
0000003FFFF2
0000003FFFF1
0000003FFFF1
0000003FFFF0
0000003FFFF0
0000002FFFF0
0000002FFFE0
0000002FFFE0
0000002FFFD0
0000001FFFD0
0000001FFFC0
0000001FFFC0
0000001FFFC0
0000000FFFB0
0000000FFFB0
0000000FFFA0
0000000FFFA0
0000000EFFA0
0000005FFF90
00005DFFFF90
005CFFFFFF80
035555555530
ENDCHAR
STARTCHAR asciicircum
ENCODING 94
SWIDTH 671 0
DWIDTH 19 0
BBX 20 18 -1 7
BITMAP
00000000035000000000
000000000CD100000000
000000006FF900000000
00000001EFFF30000000
00000009FFFFC0000000
0000003FFFFFF7000000
000000CFFFFFFE200000
000006FFFFFFFFB00000
00001EFFFF79FFF50000
00008FFFFE10CFFE1000
0003FFFFF7001DFF9000
000BFFFFD00003FFF400
005FFFFF6000006FFD00
01DFFFFD00000009FF80
08FFFFF600000000CFF2
1EFFFFD0000000001DC7
0048CF50000000000000
00000100000000000000
ENDCHAR
STARTCHAR underscore
ENCODING 95
SWIDTH 840 0
DWIDTH 24 0
BBX 24 6 0 -3
BITMAP
000000000000011112222231
DDDEEEEEFFFFFFFFFFFFFFF6
FFFFFFFFFFFFFFFFFFFFFFF6
FFFFFFFFFFFFFFFFFFFFFFF7
FFFFFFFFFFFFFFFFFFFFFFF7
AAAABBBBCCCCDDDDEEEEFFF8
ENDCHAR
STARTCHAR grave
ENCODING 96
SWIDTH 707 0
DWIDTH 20 0
BBX 6 8 8 16
BITMAP
000200
03AF20
9FFF70
4FFFC0
0AFFF2
02FFF8
009FF9
001820
ENDCHAR
STARTCHAR a
ENCODING 97
SWIDTH 572 0
DWIDTH 16 0
BBX 18 17 0 -1
BITMAP
000002677630000000
0004CFFFFFFD500000
007FFFC9AEFFF60000
04FFF60003EFFE1000
09FFF90000AFFF6000
09FFFA00006FFF9000
03EFE300005FFFA000
00143454326FFF9000
007DFFFFFFFFFF8000
0AFFFEA89BEFFF7000
4FFFF30000DFFF5000
6FFFE00000FFFF4000
4FFFF70003FFFF2000
0BFFFFEEFFFFFF1000
006CFFFFFFFFFF6000
0000133329FFFFFD60
000000000698876653
ENDCHAR
STARTCHAR b
ENCODING 98
SWIDTH 723 0
DWIDTH 20 0
BBX 24 26 -4 -5
BITMAP
000002468ACE200000000000
39BDFFFFFFFF200000000000
016AFFFFFFFF100000000000
000015AFFFFF000000000000
0000000FFFFF000000000000
0000000EFFFE000000000000
0000000EFFFE000000000000
0000000DFFFD000000000000
0000000CFFFD000000000000
0000000CFFFC000000000000
0000000BFFFB000000000000
0000000BFFFB000000000000
0000000AFFFA146777520000
00000009FFFFFFFFFFFFD600
00000009FFFFFFEEFFFFFFA0
00000008FFFC410029FFFFF6
00000007FFF70000008FFFFC
00000007FFF70000000EFFFE
00000006FFF60000000DFFFD
00000006FFF50000001FFFF9
00000005FFF50000009FFFE2
00000005FFF400025CFFFE30
0000004EFFFDCDEFFFFFB200
000007FFFFFFFFFFFEA40000
0001AFFFEDBA986530000000
000343100000000000000000
ENDCHAR
STARTCHAR c
ENCODING 99
SWIDTH 589 0
DWIDTH 17 0
BBX 17 16 0 -2
BITMAP
00000159CDC9400000
00006EFFFFFFFB2000
000AFFFFBADFFFE200
009FFFE3000BFFFA00
04FFFF50000DFFFD00
0AFFFD00000BFFFB00
0FFFFA000002BEC300
1FFFF9000000000000
2FFFF9000000000010
0FFFFC000000000830
0BFFFF300000006F10
05FFFFD2000007FB00
00BFFFFE9547CFF400
001CFFFFFFFFFF8000
00018FFFFFFFE60000
00000169AA95100000
ENDCHAR
STARTCHAR d
ENCODING 100
SWIDTH 713 0
DWIDTH 20 0
BBX 22 27 1 -5
BITMAP
000000005BDCBA98764000
00000000005CFFFFFFB000
0000000000004CFFFF9000
00000000000006FFFF8000
00000000000007FFFF6000
00000000000008FFFF4000
00000000000009FFFF2000
00000000000009FFFF0000
0000000000000AFFFD0000
0000000000000BFFFB0000
0000000000000CFFF90000
000049CDDC951CFFF70000
002CFFFFFFFFEFFFF50000
03EFFFFECCEFFFFFF30000
1DFFFE5000028FFFF20000
6FFFF50000001FFFF00000
BFFFB00000002FFFD00000
DFFF700000002FFFB00000
CFFF600000003FFF900000
9FFFA00000004FFF700000
3FFFF40000005FFF500000
09FFFF7100006FFF300000
009FFFFFCAADFFFF100000
0004BFFFFFFFFFFE000000
000001578986AFFFEB7300
0000000000009FFFFECA72
0000000000006753100000
ENDCHAR
STARTCHAR e
ENCODING 101
SWIDTH 593 0
DWIDTH 17 0
BBX 17 15 0 -2
BITMAP
0000038CDDC7100000
0002BFFFFFFFE60000
002EFFFFDEFFFF6000
00DFFFB2007FFFF200
07FFFE100008FFFA00
0DFFF7000001FFFE00
1FFFF9776666EFFF30
2FFFFFFFFFFFFFFF50
1FFFFFFEEEDDDDCC40
0DFFF6000000000000
07FFFD100000003300
01DFFFC500014AC000
002EFFFFFDEFFE2000
0001AFFFFFFFA20000
0000027ABA72000000
ENDCHAR
STARTCHAR f
ENCODING 102
SWIDTH 507 0
DWIDTH 14 0
BBX 18 39 -2 -12
BITMAP
00000000039CDB6000
000000007FFFFFFC20
00000006FFFC8CFFD1
0000001EFFD000DFF7
0000006FFF7002EFFC
000000AFFF4005FFFD
000000DFFF1002EFF9
000000FFFF10002760
000001FFFF10000000
000001FFFF20000000
000000FFFF30000000
000000EFFF40000000
001111DFFF61111100
009FFFFFFFFFFFFC00
009FFFFFFFFFFFFC00
004777BFFFE7777500
0000006FFFE0000000
0000004FFFF1000000
0000002FFFF3000000
0000000FFFF4000000
0000000DFFF6000000
0000000CFFF8000000
0000000AFFFA000000
00000008FFFB000000
00000006FFFD000000
00000004FFFF000000
00000002FFFF200000
00000000FFFF300000
00000000DFFF500000
00000000BFFF600000
00100000AFFF700000
0BFE40009FFF600000
5FFFC000AFFF400000
5FFFB000DFFE100000
2FFF5003FFF9000000
0AFFD44DFFE2000000
01CFFFFFFE40000000
0007EFFFA200000000
000002210000000000
ENDCHAR
STARTCHAR g
ENCODING 103
SWIDTH 606 0
DWIDTH 17 0
BBX 19 32 0 -14
BITMAP
00000000000005973000
000000000000AFFFF800
000000000009FFFFFF30
00000002313FFBFFFF50
00003AEFFFFFD1EFFE10
0008FFFFDFFFF74CB300
009FFFA101AFFF800000
05FFFC00000DFFF50000
0DFFF5000006FFFC0000
2FFFE0000001FFFF1000
4FFFC0000000EFFF3000
3FFFD0000000FFFF3000
1FFFF1000002FFFF1000
0AFFF6000008FFFA0000
03EFFE20003EFFF20000
005FFFD535EFFF500000
0007FFFFFFFFD3000000
009FFFCBCC9500000000
04FFFF92000000000000
04FFFFFFFEDB83000000
008FFFFFFFFFFFB20000
005EFFFFEEFFFFFE3000
08FFFE610027EFFFD100
5FFFE20000003FFFF700
CFFF8000000009FFFB00
EFFF5000000006FFFD00
EFFF6000000007FFFC00
BFFFB00000000BFFF900
3FFFF80000007FFFF200
06FFFFD7557DFFFF5000
003CFFFFFFFFFFB30000
000038BDEEDB73000000
ENDCHAR
STARTCHAR h
ENCODING 104
SWIDTH 678 0
DWIDTH 19 0
BBX 26 26 -4 -2
BITMAP
000001358ACE10000000000000
379CEFFFFFFF00000000000000
026AEFFFFFFE00000000000000
0000038FFFFE00000000000000
0000002FFFFD00000000000000
0000002FFFFC00000000000000
0000001FFFFC00000000000000
0000001FFFFB00000000000000
0000000FFFFA00000000000000
0000000EFFFA00000000000000
0000000EFFF900000000000000
0000000DFFF900000000000000
0000000DFFF824432000000000
0000000CFFFFFFFFFEA3000000
0000000BFFFFFFFFFFFF900000
0000000BFFFA31028FFFF80000
0000000AFFF5000008FFFE0000
0000000AFFF4000003FFFF2000
00000009FFF4000001FFFF2000
00000008FFF3000001FFFF0000
00000008FFF2000001FFFD0000
00000007FFF2000001FFFA0000
0000018FFFFE600001FFF70000
00006EFFFFFFEA2004FFF90000
0003433221000003BFFFFFD400
000000000000004AABBCCCDD91
ENDCHAR
STARTCHAR i
ENCODING 105
SWIDTH 393 0
DWIDTH 11 0
BBX 14 24 -1 -1
BITMAP
00000013000000
000007FFE40000
00004FFFFE1000
00007FFFFF3000
00006FFFFF1000
00000CFFF80000
00000068400000
00000000000000
38888888881000
029FFFFFFF2000
00018EFFFF0000
000009FFFE0000
000008FFFD0000
000008FFFC0000
000007FFFB0000
000006FFFA0000
000006FFF90000
000005FFF70000
000005FFF60000
000004FFF50000
00003CFFFA1000
0019FFFFFFD400
03BDDEEEFFFF91
00000000000010
ENDCHAR
STARTCHAR j
ENCODING 106
SWIDTH 385 0
DWIDTH 11 0
BBX 12 31 -2 -10
BITMAP
000003750000
00007FFFB000
0001FFFFF500
0003FFFFF700
0001EFFFF400
00005EFF8000
000001310000
000000135720
049BDEFFFF50
0039EFFFFF70
000017EFFF80
000000BFFFA0
0000009FFFB0
0000007FFFD0
0000005FFFE0
0000004FFFF1
0000002FFFF2
0000000FFFF4
0000000DFFF5
0000000CFFF7
0000000AFFF8
00000008FFF9
00000007FFFA
03400005FFFA
8FFC1004FFFA
EFFF4003FFF8
DFFF2005FFF5
9FFC000AFFE1
1DFFC8BFFF60
01AFFFFFE600
000268751000
ENDCHAR
STARTCHAR k
ENCODING 107
SWIDTH 749 0
DWIDTH 21 0
BBX 28 26 -4 -3
BITMAP
0000012356782000000000000000
15AEFFFFFFFF3000000000000000
000148CFFFFF3000000000000000
0000002FFFFF2000000000000000
0000001FFFFF2000000000000000
0000000FFFFF12AEEEEEEEEEED71
0000000EFFFF1005DFFFFFFE7100
0000000DFFFF10001AFFFD600000
0000000CFFFF00005EFF80000000
0000000BFFFF0007FFE400000000
0000000AFFFE009FFC2000000000
00000009FFFE1BFFC00000000000
00000008FFFEDFFFF30000000000
00000007FFFFFFFFFC0000000000
00000006FFFFE6CFFF7000000000
00000005FFFD202FFFE100000000
00000004FFFC0007FFFA00000000
00000003FFFB0000CFFF40000000
00000003FFFB00003FFFD0000000
00000002FFFB000008FFF7000000
00000003FFFC200000DFFE200000
000003AFFFFFFB50003FFFB30000
0003AFFFFFFEEDCB400BFFFFEA62
001433221000000001AFFFFFDA74
00000000000000003DFEB8510000
0000000000000003862000000000
ENDCHAR
STARTCHAR l
ENCODING 108
SWIDTH 369 0
DWIDTH 10 0
BBX 15 27 -3 -3
BITMAP
5BEEEFFFFFF30000
0028DFFFFFF20000
000004EFFFF20000
000000DFFFF10000
000000DFFFF10000
000000CFFFF00000
000000BFFFF00000
000000BFFFE00000
000000AFFFE00000
0000009FFFD00000
0000009FFFC00000
0000008FFFC00000
0000008FFFB00000
0000007FFFB00000
0000006FFFA00000
0000006FFFA00000
0000005FFF900000
0000004FFF900000
0000004FFF800000
0000003FFF800000
0000002FFF700000
0000002FFF700000
0000001FFF600000
0000018FFFD50000
00004DFFFFFFA200
001AFFFEEDDCBA30
0011100000000000
ENDCHAR
STARTCHAR m
ENCODING 109
SWIDTH 990 0
DWIDTH 28 0
BBX 33 15 -3 1
BITMAP
0000000001300000000000000000000000
0001368BDFF169BCA5000169A950000000
29DFFFFFFFFEFFFFFFA39FFFFFFC100000
0037CFFFFFFFFFFFFFFFFFFFFFFF900000
000001BFFFFB645CFFFFFD77CFFFF10000
0000008FFFC00002EFFFD1000DFFF30000
0000006FFFA00000AFFF600008FFF40000
0000004FFF8000007FFF200007FFF40000
0000003FFF6000007FFF000007FFF20000
0000001FFF5000007FFE000008FFF10000
0000000EFF4000007FFC000009FFE00000
000017DFFFF910007FFB0004BFFFFC4000
0016BBBBBBBBA304CFFC306ABCCDEEFA30
00000000000028DFFFFFFA300000000010
0000000000014444443333300000000000
ENDCHAR
STARTCHAR n
ENCODING 110
SWIDTH 643 0
DWIDTH 18 0
BBX 23 15 -3 1
BITMAP
000000000130000000000000
0001368BDFF038BCA5000000
29DFFFFFFFFDFFFFFFC10000
0037CFFFFFFFFFFFFFFA0000
000001BFFFFB646DFFFF1000
0000008FFFC00001EFFF4000
0000006FFFA000009FFF5000
0000004FFF8000007FFF4000
0000003FFF6000007FFF3000
0000001FFF5000007FFF1000
0000000EFF4000007FFE0000
000017DFFFE810007FFC0000
0016BBBBBBBB9204CFFC3000
00000000000028DFFFFFFA30
000000000001444444333330
ENDCHAR
STARTCHAR o
ENCODING 111
SWIDTH 705 0
DWIDTH 20 0
BBX 20 15 0 -1
BITMAP
00000002455420000000
00005BEFFFFFFEA40000
003DFFFFFEDFFFFFA100
04FFFFE720016EFFFD10
1EFFFD20000002EFFFA0
6FFFF3000000007FFFF2
9FFFD0000000002FFFF5
AFFFC0000000001FFFF6
9FFFE0000000003FFFF5
5FFFF4000000008FFFE1
0CFFFD10000004FFFF80
02DFFFE620249FFFFA00
001AFFFFFFFFFFFE6000
000038DFFFFFEA610000
00000000233100000000
ENDCHAR
STARTCHAR p
ENCODING 112
SWIDTH 723 0
DWIDTH 20 0
BBX 23 23 -3 -7
BITMAP
000000245770000000000000
69BCEFFFFFC0000000000000
049EFFFFFFC1467752000000
000049FFFFFFFFFFFFD70000
000000DFFFFFECDFFFFFC200
000000CFFFE300005DFFFD10
000000BFFFD0000001DFFF70
000000AFFFD00000006FFFC0
0000009FFFD00000003FFFE0
0000008FFFD00000004FFFE0
0000007FFFD00000008FFFB0
0000006FFFD0000003FFFF60
0000005FFFFA53239FFFFB00
0000004FFFFFFFFFFFFFB100
0000003FFFECFFFFFFC60000
0000002FFFD0135542000000
0000002FFFE0000000000000
0000001FFFE0000000000000
0000000FFFE0000000000000
0000000EFFE0000000000000
0000029FFFFD710000000000
0004BFFFFFFFFE9300000000
039BBAA98877655410000000
ENDCHAR
STARTCHAR q
ENCODING 113
SWIDTH 682 0
DWIDTH 19 0
BBX 23 23 0 -7
BITMAP
0000000000007BBBCCCCC920
0000000000009FFFFFFB4000
00005ADFFFDACFFFFB300000
004DFFFFFFFFFFFFF1000000
05FFFFD85458EFFFF0000000
1EFFF90000009FFFE0000000
6FFFC00000009FFFE0000000
9FFF800000009FFFD0000000
AFFF700000009FFFC0000000
9FFFA0000000AFFFB0000000
4FFFF2000000AFFFA0000000
0CFFFD400002CFFF90000000
02DFFFFDBCDFFFFF80000000
001AFFFFFFFFFFFF70000000
000027ACBA83AFFF60000000
000000000000BFFF50000000
000000000000BFFF40000000
000000000000BFFF30000000
000000000000CFFF30000000
000000000016EFFF60000000
0000000028EFFFFFFD710000
00000006ABBCDDEEFFFE9200
000000000000000001122300
ENDCHAR
STARTCHAR r
ENCODING 114
SWIDTH 595 0
DWIDTH 17 0
BBX 20 18 -2 -1
BITMAP
0000000147A000022000
000259CFFFF02AEFFE60
3AEFFFFFFFF9FFFFFFF4
0148CFFFFFFFFFFFFFF7
000001DFFFFE63BFFFF5
000000BFFFF5001BFFB0
000000AFFFD000002200
0000008FFFC000000000
0000006FFFC000000000
0000005FFFB000000000
0000003FFFB000000000
0000002FFFA000000000
0000000FFFA000000000
0000000EFFD510000000
000003CFFFFFE9400000
00018FFFFFFFFFFC5000
005DFEDBA86532000000
01421000000000000000
ENDCHAR
STARTCHAR s
ENCODING 115
SWIDTH 533 0
DWIDTH 15 0
BBX 15 18 0 -1
BITMAP
0000146530000610
002AFFFFFD600D00
03EFFFFFFFFC8E00
0DFFC3004BFFFE00
5FFF6000006FFD00
6FFFD2000005FD00
4FFFFFA400006C00
0CFFFFFFE9300800
02DFFFFFFFFB4000
0118FFFFFFFFF700
091028DFFFFFFF50
0C9000039EFFFFC0
0EF8000001BFFFE0
0FFFA200005FFFC0
2FFFFFA768EFFF50
3FBCFFFFFFFFF600
5C1048BDECB72000
4100000000000000
ENDCHAR
STARTCHAR t
ENCODING 116
SWIDTH 422 0
DWIDTH 12 0
BBX 14 27 -1 -1
BITMAP
00000001100000
0000005FE00000
0000009FC00000
000000DFB00000
000004FF900000
00000CFF800000
0001AFFF600000
159EFFFF710000
3FFFFFFFFFFDC5
4FFFFFFFFFFFF7
0027FFFF89ACD5
0007FFFE000000
0008FFFC000000
0009FFFB000000
000AFFFA000000
000BFFF8000000
000CFFF7000000
000DFFF5000000
000FFFF4000000
001FFFF3000030
002FFFF1000090
002FFFF00005B0
001FFFF3003EA0
000DFFFD79EF70
0008FFFFFFFE10
0001BFFFFFE300
000006BCB81000
ENDCHAR
STARTCHAR u
ENCODING 117
SWIDTH 614 0
DWIDTH 17 0
BBX 23 16 -3 -2
BITMAP
19BBBBBCC314444555540000
007EFFFFF303BFFFFFFC0000
00019FFFF10003AFFFF90000
00003FFFF000000AFFF70000
00004FFFD000000AFFF40000
00004FFFC000000BFFF20000
00004FFFB000000CFFE00000
00004FFFA000000DFFC00000
00004FFFA000000DFFA00000
00002FFFC000000EFF700000
00000EFFF200005FFF500000
000008FFFD745AFFFF300000
000001DFFFFFFFFFFF820000
00000019EFFFFD5FFFFFC610
000000000345300FFDA74100
000000000000000310000000
ENDCHAR
STARTCHAR v
ENCODING 118
SWIDTH 639 0
DWIDTH 18 0
BBX 25 19 -4 -3
BITMAP
00000000000034000000000000
000001368BDFB2000000000000
169BEFFFFFE622100000000000
0159DFFFFF3007EFEDCB987650
000006FFFF70002AFFFFFFD710
000000CFFFE100004FFFA40000
0000003FFFF700005FF6000000
0000000AFFFE1000CFD0000000
00000002FFFF7005FF60000000
000000008FFFE10DFD00000000
000000001EFFF76FF600000000
0000000006FFFEDFD000000000
0000000000CFFFFF6000000000
00000000004FFFFD0000000000
00000000000AFFF60000000000
000000000002FFD00000000000
0000000000008F600000000000
0000000000001C000000000000
00000000000001000000000000
ENDCHAR
STARTCHAR w
ENCODING 119
SWIDTH 805 0
DWIDTH 23 0
BBX 31 17 -4 -1
BITMAP
00011233456676100003221000000000
18EFFFFFFFFC60007003BFFFFEEDC820
0016CFFFFF500005E10004CFFFC71000
000006FFFF90000CF700008FF5000000
000000DFFFE1003FFE0001EFC0000000
0000006FFFF700AFFF6007FF60000000
0000000DFFFE02FFFFD00EFD00000000
00000007FFFF68FFFFF46FF700000000
00000001EFFFCEFEFFFBDFE100000000
000000007FFFFFF4FFFFFF8000000000
000000001EFFFF90AFFFFF2000000000
0000000008FFFF203FFFF90000000000
0000000001EFFB000AFFF30000000000
00000000008FF40003FFB00000000000
00000000001EC00000AF400000000000
0000000000095000003C000000000000
00000000000100000002000000000000
ENDCHAR
STARTCHAR x
ENCODING 120
SWIDTH 717 0
DWIDTH 20 0
BBX 26 18 -3 -2
BITMAP
00000000002468620000000000
002468ACEFFFA3000000000000
37BEFFFFFFD226667778899971
000015EFFFF6039EFFFFFFA300
0000003FFFFF4002EFFE710000
00000005FFFFE22DFFB1000000
000000007FFFFDEFF700000000
0000000009FFFFFE4000000000
0000000000BFFFF70000000000
00000000007FFFFF4000000000
0000000008FFFFFFE100000000
00000000AFFE6EFFFC00000000
0000004CFFE303EFFF90000000
00049EFFFFE6004FFFF6000000
01789ABCDEEFC406FFFFC84000
000000000000125DFFFFFFFE94
0000000000002BFDBA86532000
00000000000031000000000000
ENDCHAR
STARTCHAR y
ENCODING 121
SWIDTH 655 0
DWIDTH 18 0
BBX 20 29 -2 -13
BITMAP
10000000000000000000
1B930000000000000000
02EFD830018BA8753200
003EFFFD8205EFFFFFF7
0004FFFFF8001AFFFFF7
0000EFFFF300007FFFF6
0003FFFFD000005FFFF5
0008FFFF8000005FFFF5
000CFFFF4000006FFFF4
000EFFFF1000006FFFF3
000FFFFF0000006FFFF3
000CFFFF7000006FFFF2
0007FFFFFA5457CFFFF2
0000BFFFFFFFFFFFFFF1
000008EFFFFFFEDFFFF0
000000046765208FFFF0
000000000000009FFFE0
000000000000009FFFD0
000000000000009FFFD0
00000000000000AFFFC0
00001310000000CFFFA0
0004EFD1000000EFFF80
000CFFF7000002FFFF50
000DFFF5000007FFFE10
000AFFA000001EFFF800
0003FFF71003CFFFD100
00006FFFFDDFFFFD2000
000004CFFFFFFE810000
00000003688741000000
ENDCHAR
STARTCHAR z
ENCODING 122
SWIDTH 549 0
DWIDTH 15 0
BBX 17 16 0 -1
BITMAP
245556667788899930
7FFFFFFFFFFFFFFA00
4FFFFFFEEEFFFFD100
1FFC10001DFFFF3000
0DF70000BFFFF70000
0AF30008FFFFB00000
07D0005FFFFD100000
049003EFFFF4004000
01401DFFFF70039000
0000BFFFFB000AA000
0008FFFFE1002FA000
005FFFFF40008FB000
03EFFFFD8643EFC000
1DFFFFFFFFFFFFD000
49ABCDEFFFFFFFE000
000000001234567000
ENDCHAR
STARTCHAR braceleft
ENCODING 123
SWIDTH 708 0
DWIDTH 20 0
BBX 16 27 2 -4
BITMAP
00001FFEEDDDCCA3
00001FFFFFFFD600
00000FFFFFD60000
00000FFFF9000000
00000FFFF7000000
00000EFFF6000000
00000EFFF6000000
00000EFFF6000000
00000DFFF6000000
00000DFFF5000000
00000DFFF5000000
00001DFFF5000000
015AEFFFF5000000
5DFFFFFFF4000000
0038CFFFF4000000
00000AFFF4000000
000009FFF4000000
000009FFF3000000
000009FFF3000000
000008FFF3000000
000008FFF3000000
000007FFF2000000
000007FFF2000000
000006FFF7100000
000006FFFFE60000
000006FFFFFFD600
0000025555555540
ENDCHAR
STARTCHAR bar
ENCODING 124
SWIDTH 304 0
DWIDTH 9 0
BBX 5 27 2 -3
BITMAP
556740
FFFF90
FFFF80
FFFF80
FFFF80
FFFF80
FFFF80
EFFF70
EFFF70
EFFF70
EFFF70
EFFF60
DFFF60
DFFF60
DFFF60
DFFF50
DFFF50
DFFF50
CFFF50
CFFF50
CFFF40
CFFF40
CFFF40
CFFF40
BFFF30
BFFF30
111100
ENDCHAR
STARTCHAR braceright
ENCODING 125
SWIDTH 517 0
DWIDTH 15 0
BBX 16 27 0 -4
BITMAP
6BCCDDEEFFA00000
029FFFFFFF900000
00029EFFFF900000
000001EFFF900000
000000DFFF800000
000000DFFF800000
000000CFFF700000
000000CFFF700000
000000CFFF700000
000000CFFF600000
000000BFFF600000
000000BFFF700000
000000BFFFFD8300
000000AFFFFFFFA2
000000AFFFEA6200
000000AFFF400000
000000AFFF300000
0000009FFF300000
0000009FFF200000
0000009FFF200000
0000009FFF200000
0000008FFF100000
0000008FFF100000
000002CFFF000000
00029FFFFF000000
029FFFFFFF000000
1555555555000000
ENDCHAR
STARTCHAR asciitilde
ENCODING 126
SWIDTH 466 0
DWIDTH 13 0
BBX 14 6 0 6
BITMAP
00354100000061
AEFFFFC7315CF1
FFFFFFFFFFFFF1
FFFFFFFFFFFFF1
FFA79DFFFFFFF1
C3000037AB9610
ENDCHAR
STARTCHAR uni00A0
ENCODING 160
SWIDTH 320 0
DWIDTH 9 0
BBX 1 1 0 0
BITMAP
00
ENDCHAR
STARTCHAR exclamdown
ENCODING 161
SWIDTH 305 0
DWIDTH 9 0
BBX 9 25 0 -9
BITMAP
0000132000
0004EFFB10
000BFFFF70
0009FFFF60
0001BFE800
0000000000
0006CA8000
000AFFD000
000DFFC000
000FFFB000
003FFFB000
006FFFA000
008FFFA000
00BFFF9000
00EFFF8000
02FFFF8000
04FFFF7000
07FFFF6000
0AFFFF6000
0DFFFF5000
1FFFFF4000
3FFFFF4000
6FFFFF3000
9FFFFF3000
3567891000
ENDCHAR
STARTCHAR cent
ENCODING 162
SWIDTH 417 0
DWIDTH 12 0
BBX 13 23 -1 -3
BITMAP
000008FFF30000
000007FFF20000
000006FFF10000
000005FFF00000
00002AFFF92000
0008FFFFFFE500
009FFC202CFF30
04FFE1000CFF90
0BFFA0000BFF90
1FFF500002AA10
3FFF4000000000
4FFF4000000000
3FFF6000000020
0EFFB0000000A0
09FFF400001B90
01EFFF8437EF20
004EFFFFFFF500
0002AEFFFC4000
000004FFF00000
000005FFF10000
000007FFF20000
000008FFF30000
000007EEE30000
ENDCHAR
STARTCHAR sterling
ENCODING 163
SWIDTH 658 0
DWIDTH 18 0
BBX 19 22 0 -2
BITMAP
00000000000000000520
00000001466400002E10
000002AFFFFFE910CE00
00004EFFFFFFFFDAFC00
0002EFFFD658EFFFFA00
0009FFFE10001BFFF800
000DFFF8000000CFF600
110EFFF50000002EF400
DFFFFFFDCBBA9308F200
EFFFFFFFFFFFF401E000
FFFFFFFFFFFFF3009000
44337FFF300000002020
12234FFF855562000080
DFFFFFFFFFFFF4000690
EFFFFFFFFFFFF4000D80
7789BFFFCCDEE3005F70
00008FFE00000000CF60
0001EFFA34445567FF50
0009FFFFFFFFFFFFFF50
004FFFFFFFFFFFFFFF40
0089ABBCCDEEFFFFFF30
00000000000001122310
ENDCHAR
STARTCHAR currency
ENCODING 164
SWIDTH 358 0
DWIDTH 10 0
BBX 10 10 0 5
BITMAP
06C1000950
6FFCCCBFF4
8FFFFFFFFB
08FFCAFFC0
07FD009FC0
07FE20BFB0
06FFEEFF90
4FFFFFFFF5
8FF6786EF9
0A40000370
ENDCHAR
STARTCHAR yen
ENCODING 165
SWIDTH 796 0
DWIDTH 22 0
BBX 27 19 -4 0
BITMAP
0000000002456100000000000000
14689BCEFFF91000000000000000
027BFFFFFF400002ACBBAA998840
000014BFFFD1000006DFFFFE8300
0000001BFFFC1000002EFB500000
00000001CFFFB00002DF90000000
000000001CFFF9002DF900000000
0000000001DFFF83EF9000000000
00000000002DFFFFF90000000000
000000000002DFFF900000000000
000000004BAABFFF776600000000
000000006FFFFFFFFFFE00000000
0000000036667FFF744300000000
000000003BBBCFFFEDEE00000000
000000006DEEFFFFFFFE00000000
0000000000005FFF933300000000
0000000000019FFFB30000000000
0000000016BFFFFFFFD951000000
0000001699999999999998400000
ENDCHAR
STARTCHAR brokenbar
ENCODING 166
SWIDTH 304 0
DWIDTH 9 0
BBX 5 27 2 -3
BITMAP
556740
FFFF90
FFFF80
FFFF80
FFFF80
FFFF80
FFFF80
EFFF70
EFFF70
EFFF70
887630
000000
000000
000000
000000
776520
DFFF50
DFFF50
CFFF50
CFFF40
CFFF40
CFFF40
CFFF40
CFFF40
BFFF30
BFFF30
111100
ENDCHAR
STARTCHAR section
ENCODING 167
SWIDTH 646 0
DWIDTH 18 0
BBX 16 33 1 -8
BITMAP
0000268751000050
002AFFFFFE9100A0
03EFFFFFFFFD32D0
1DFFC30039FFEAD0
7FFF1000003DFFC0
BFFE00000002DFC0
DFFF600000003EB0
BFFFF710000006B0
7FFFFFE820000060
1DFFFFFFFB500000
02EFFFFFFFFD5000
005FFFFFFFFFFA10
04FFFFFFFFFFFFB0
2EFFB25BFFFFFFF7
8FFF100028FFFFFD
CFFE0000002DFFFF
DFFF60000005FFFE
BFFFF9200005FFFC
6FFFFFFA415DFFF5
0CFFFFFFFFFFFF80
02DFFFFFFFFFE400
001AFFFFFFFFFB10
00004CFFFFFFFFC1
14000039EFFFFFF7
2D10000017EFFFFC
3F900000002CFFFF
4FF900000004FFFE
5FFFA1000005FFFB
7FFFFE84236EFFF4
8F6DFFFFFFFFFF60
99016CFFFFFEA300
9100000243200000
3000000000000000
ENDCHAR
STARTCHAR dieresis
ENCODING 168
SWIDTH 708 0
DWIDTH 20 0
BBX 10 4 5 23
BITMAP
0362003620
2FFE02FFD0
3FFF14FFF1
09E8009E70
ENDCHAR
STARTCHAR copyright
ENCODING 169
SWIDTH 700 0
DWIDTH 20 0
BBX 20 18 0 1
BITMAP
00000269CDDC95100000
0002AFFFFFFFFFE70000
005EFFFC8667BFFFB100
04FFFC30011003DFFB00
1DFFA005DFFD501DFF60
6FFC007FD54DF503FFE0
BFF403FF300BFB00CFF4
DFF009FD0005D6007FF7
FFD00BFB000000006FF9
EFE00BFC000000006FF8
DFF109FE100007008FF6
9FF503FFB1008900CFF2
3FFC008FFECED104FFC0
0AFF9005CED9102EFF30
01DFFA20000006EFF600
002CFFFB878AEFFE6000
00007EFFFFFFFFA20000
00000048ABA851000000
ENDCHAR
STARTCHAR ordfeminine
ENCODING 170
SWIDTH 399 0
DWIDTH 11 0
BBX 13 13 -1 10
BITMAP
00000120000000
002AEFFFA20000
03EFEBDFFE1000
0AFFA00CFF7000
0AFFA008FFA000
01895438FFB000
03CFFFFFFFA000
1EFFC77EFF9000
4FFF400DFF7000
2FFFD9AFFF6000
04DFFFFFFFA100
0002447FFFFE70
00000013210000
ENDCHAR
STARTCHAR guillemotleft
ENCODING 171
SWIDTH 424 0
DWIDTH 12 0
BBX 12 15 0 -1
BITMAP
000017000080
0000BE1006F5
0007FF203EF7
003FFA00CFE1
01DFF309FF80
0AFFC05FFF20
6FFF52EFFA00
BFFF15FFF600
5FFF61DFFB00
08FFD03FFF30
00CFF407FFA0
002EFB00BFF1
0005FF201EF7
00009E0004F4
000015000060
ENDCHAR
STARTCHAR logicalnot
ENCODING 172
SWIDTH 541 0
DWIDTH 15 0
BBX 17 15 0 1
BITMAP
400000000000001000
640000000000008000
6A000000000005B000
6F21000000000DA000
6FFFFEDDCBAABF9000
6FFFFFFFFFFFFF8000
6FFFFFFFFFFFFF7000
6FFFFFEEEDDFFF6000
7E100000000AFF5000
780000000006FF4000
720000000003FF3000
200000000000EF2000
000000000018FF9000
0000000001ADFFFB10
000000000000012330
ENDCHAR
STARTCHAR sfthyphen
ENCODING 173
SWIDTH 530 0
DWIDTH 15 0
BBX 15 6 0 7
BITMAP
2210000000000000
DFFFFEDCCBA99860
EFFFFFFFFFFFFFC0
EFFFFFFFFFFFFFB0
FFFFFFFFFFFFFFA0
BBAA998877665530
ENDCHAR
STARTCHAR registered
ENCODING 174
SWIDTH 700 0
DWIDTH 20 0
BBX 20 18 0 1
BITMAP
00000036899862000000
00007DFFFFFFFFB30000
003DFFFFC99AEFFF8000
02EFFE71000006EFF800
0CFFC2000110003EFF40
5FFE1269DF68DD75FFD0
AFF6049EFFFFFFF0DFF3
DFF10005FFD5AFA08FF7
EFD00003FF4000006FF8
EFD00001FF3000006FF8
DFF10000FF3000007FF7
AFF40000DF200000BFF3
5FFB0005EFD82003FFD0
0CFF507CBA87621CFF50
03EFF700000003CFF900
004EFFD75457BFFF9000
0002AFFFFFFFFFD50000
0000027BDEDC84000000
ENDCHAR
STARTCHAR macron
ENCODING 175
SWIDTH 705 0
DWIDTH 20 0
BBX 8 4 7 20
BITMAP
DEEEEEEC
EFFFFFFD
EFFFFFFD
ABBBBBB9
ENDCHAR
STARTCHAR degree
ENCODING 176
SWIDTH 364 0
DWIDTH 10 0
BBX 8 8 1 12
BITMAP
019EFA20
0BFFFFD1
6FF98FF8
9FC009FC
7FE31CFA
2EFFFFF4
04EFFE60
00155100
ENDCHAR
STARTCHAR plusminus
ENCODING 177
SWIDTH 607 0
DWIDTH 17 0
BBX 17 18 0 0
BITMAP
0000008A9960000000
000000BFFFB0000000
000000BFFFA0000000
010000AFFF90000000
4FFFEDEFFFD9987620
5FFFFFFFFFFFFFFF60
6FFFFFFFFFFFFFFF50
6FFFFFFFFFFFFFFF40
377666AFFF83322200
0000007FFF50000000
0000007FFF40000000
0000006FFF30000000
000000267810000000
0DCBAA987765443200
1FFFFFFFFFFFFFFF30
1FFFFFFFFFFFFFFF20
2FFFFFFFFFFFFFFF10
2CCBBAA99888776600
ENDCHAR
STARTCHAR twosuperior
ENCODING 178
SWIDTH 440 0
DWIDTH 12 0
BBX 12 16 0 10
BITMAP
010000000000
0A1026884000
0BC8FFFFFD30
0AFFFFEFFFE2
08FFA203EFFA
07FC00009FFD
05F40000BFFC
03D00007FFF7
028002AFFFB5
00518FFFE71C
005DFFE810AC
05FFFB2005FB
4FFFE5566DF9
AFFFFFFFFFF8
EFFFFFFFFFF7
455677889AA4
ENDCHAR
STARTCHAR threesuperior
ENCODING 179
SWIDTH 442 0
DWIDTH 12 0
BBX 13 17 0 8
BITMAP
53000000000000
3E206AB9610000
0ECDFFFFFE4000
0CFFFDCFFFE200
08FF7003EFF800
05F70000AFFA00
02C00002EFF800
00409DCFFFE200
0010AFFFFFE300
026068AEFFFB00
05C00002FFFF10
09F70000EFFF00
0CFF9329FFFB00
1FFFFFFFFFE200
4E49FFFFF92000
74001565100000
10000000000000
ENDCHAR
STARTCHAR acute
ENCODING 180
SWIDTH 694 0
DWIDTH 19 0
BBX 6 8 8 20
BITMAP
002000
04FA30
09FFF4
0EFFC0
4FFF40
9FFB00
7EF300
004000
ENDCHAR
STARTCHAR mu
ENCODING 181
SWIDTH 1000 0
DWIDTH 28 0
BBX 22 22 0 -8
BITMAP
4BBBBBCCA0344455555200
02AFFFFFB017EFFFFFF400
0004DFFF900006DFFFF200
0000AFFF8000002FFFF000
0000AFFF6000002FFFC000
00009FFF5000003FFFA000
00009FFF4000004FFF7000
00009FFF3000005FFF5000
00009FFF3000006FFF3000
00008FFF4000006FFF0000
00008FFFA00001CFFD0000
00008FFFFA547DFFFA0000
00008FFFFFFFFFFFFD5100
00008FFFFFFFFA8FFFFE93
00007FFF4454108FEB8630
00007FFF20000022000000
00007FFF20000000000000
00007FFF20000000000000
00006FFF20000000000000
00006FFF20000000000000
00006FFF20000000000000
0000134510000000000000
ENDCHAR
STARTCHAR paragraph
ENCODING 182
SWIDTH 782 0
DWIDTH 22 0
BBX 24 20 -1 -1
BITMAP
000000000123334455666775
000037ADEFFFFFFFFFFFFB40
004BFFFFFFFFFFFFFFF93000
08FFFFEB7AFFD79FFD100000
4FFFE60007FFC03FFB000000
7FFF500007FFB03FFB000000
6FFF800008FFA04FFB000000
0BFFFB4008FFA04FFB000000
007EFFFEBCFFC7AFFA000000
00017CFFFFFFFFFFFA000000
000000147CFFEEEFFA000000
0000000009FF806FFA000000
0000000009FF707FF9000000
0000000009FF708FF9000000
0000000009FF609FF9000000
000000000AFF60AFF9000000
000000000AFFBDFFFD400000
000000001BFFFFFFFFFB4000
0000015AFFFFFFFFFFFFFB30
00049DDDCBBA998876654430
ENDCHAR
STARTCHAR periodcentered
ENCODING 183
SWIDTH 226 0
DWIDTH 6 0
BBX 6 5 0 8
BITMAP
07DE91
6FFFFB
AFFFFF
6FFFFB
05AB81
ENDCHAR
STARTCHAR cedilla
ENCODING 184
SWIDTH 780 0
DWIDTH 22 0
BBX 8 10 7 -6
BITMAP
00187000
008F9000
03FF9200
0DFFFE40
157AEFD0
00003FF2
06B26FF1
2FFFFFB0
05EFFB20
00021000
ENDCHAR
STARTCHAR onesuperior
ENCODING 185
SWIDTH 390 0
DWIDTH 11 0
BBX 11 16 0 9
BITMAP
000000021000
000269DF5000
59DFFFFF4000
148CFFFF4000
00009FFF3000
00008FFF3000
00007FFF3000
00007FFF2000
00006FFF2000
00006FFF1000
00005FFF1000
00004FFF0000
00004FFF0000
0006EFFFA100
02BFFFFFFC20
012222233320
ENDCHAR
STARTCHAR ordmasculine
ENCODING 186
SWIDTH 449 0
DWIDTH 13 0
BBX 14 11 -1 11
BITMAP
00001456530000
004BFFFFFFD600
06FFFEA8BFFFA0
2FFFB10006FFF6
7FFF100000CFFB
8FFE000000AFFC
5FFF300000DFFA
1DFFC20019FFF3
03DFFFCCEFFE50
0018DFFFFD9200
00000133100000
ENDCHAR
STARTCHAR guillemotright
ENCODING 187
SWIDTH 415 0
DWIDTH 12 0
BBX 12 15 0 -1
BITMAP
180000810000
7F4002FA0000
8FE203FF6000
2FFB00BFE200
0AFF705FFC00
03FFF30DFF90
00CFFD16FFF5
007FFF42FFF9
00DFFC07FFF3
04FFE20EFF70
0BFF606FFB00
3FFA00CFE100
9FD103FF4000
6F3001E80000
060000600000
ENDCHAR
STARTCHAR onequarter
ENCODING 188
SWIDTH 918 0
DWIDTH 26 0
BBX 26 29 0 -4
BITMAP
00000002100000000000810000
000269DF500000000007FD3000
59DFFFFF40000000002EFFF200
148CFFFF4000000000AFFF9000
00009FFF3000000004FFFE1000
00008FFF300000000CFFF50000
00007FFF300000006FFFB00000
00007FFF20000001EFFE200000
00006FFF20000009FFF7000000
00006FFF1000003FFFC0000000
00005FFF100000BFFF30000000
00004FFF000005FFF900015000
00004FFF00001DFFE1000B7000
0006EFFFA1008FFF50009F7000
02BFFFFFFC22FFFB0007FF6000
01222223332AFFF2005FFF6000
00000000004FFF7003EFFF6000
0000000000DFFD002DFFFF5030
0000000007FFF401CFFFFF5190
000000001EFF900AFF9FFF5990
000000009FFE108FFA1FFF7F90
00000003FFF506FFFEEFFFFF80
0000000CFFB04FFFFFFFFFFF80
0000006FFF202333222EFF4E70
000001EFF7000000000EFF2660
000009FFD0000000017FFF7030
00003FFF40000004AFFFFFFD50
00005EF9000000466666666662
00000191000000000000000000
ENDCHAR
STARTCHAR onehalf
ENCODING 189
SWIDTH 1007 0
DWIDTH 28 0
BBX 28 29 0 -4
BITMAP
0000000210000000000081000000
000269DF500000000007FD300000
59DFFFFF40000000002EFFF20000
148CFFFF4000000000AFFF900000
00009FFF3000000004FFFE100000
00008FFF300000000CFFF5000000
00007FFF300000006FFFB0000000
00007FFF20000001EFFE20000000
00006FFF20000009FFF700000000
00006FFF1000003FFFC000000000
00005FFF100000BFFF3000000000
00004FFF000005FFF90000000000
00004FFF00001DFFE10000000000
0006EFFFA1008FFF500000000000
02BFFFFFFC22FFFB080004541000
01222223332AFFF20D96EFFFF910
00000000004FFF700BFFFFFFFFD1
0000000000DFFD000AFFC527FFF8
0000000007FFF40008FD1000AFFC
000000001EFF900007F40000BFFC
000000009FFE100005D00005FFF8
00000003FFF500000480018FFFC3
0000000CFFB0000002406EFFF92B
0000006FFF200000004CFFFA309B
000001EFF700000005FFFC3004FA
000009FFD00000003FFFD2223DF9
00003FFF40000000AFFFFFFFFFF7
00005EF900000000EFFFFFFFFFF6
00000191000000007899AABBCDD4
ENDCHAR
STARTCHAR threequarters
ENCODING 190
SWIDTH 936 0
DWIDTH 26 0
BBX 26 29 0 -4
BITMAP
53000000000000000000540000
3E206AB9610000000001EF8100
0ECDFFFFFE4000000008FFF900
0CFFFDCFFFE20000002FFFE200
08FF7003EFF8000000BFFF7000
05F70000AFFA000005FFFC0000
02C00002EFF800000DFFF30000
00409DCFFFE200007FFF900000
0010AFFFFFE30002EFFE100000
026068AEFFFB000AFFF5000000
05C00002FFFF104FFFB0000000
09F70000EFFF00CFFE20006000
0CFF9329FFFB06FFF70004F000
1FFFFFFFFFE21EFFC0002EF000
4E49FFFFF9209FFF3001DFE000
740015651003FFF9000BFFE000
10000000000CFFE1009FFFD000
00000000005FFF5007FFFFD012
0000000001EFFB005FFFFFD082
0000000008FFE203EFEAFFC2E2
000000002FFF702EFF38FFC9F1
00000000BFFC01CFFFDEFFFFF1
00000005FFF30AFFFFFFFFFFF0
0000000DFF9013332228FFA8F0
0000007FFE1000000006FF91C0
000002EFF5000000004BFFC230
00000AFFB00000017DFFFFFF91
00000BFF200000266666666665
00000056000000000000000000
ENDCHAR
STARTCHAR questiondown
ENCODING 191
SWIDTH 568 0
DWIDTH 16 0
BBX 18 26 -1 -9
BITMAP
000000000000120000
00000000000AFFD600
00000000006FFFFF60
00000000007FFFFF90
00000000001CFFFF30
000000000000477200
000000000034100000
0000000000AFFC0000
0000000002FFFE0000
0000000008FFFC0000
000000245EFFFA0000
00029EFFFFFFF80000
005FFFFFFFFFF60000
04FFFFFB5336B30000
0CFFFF700000000000
2FFFFA000000000000
4FFFF5000000000000
3FFFF4000000000031
1FFFF70000000001A0
0AFFFE200000000AA0
02EFFFD40000009F60
004EFFFFC7557DFF30
00029FFFFFFFFFFE00
00000169BCCBAAFC00
00000000000000D800
000000000000004500
ENDCHAR
STARTCHAR Agrave
ENCODING 192
SWIDTH 788 0
DWIDTH 22 0
BBX 33 36 -5 -7
BITMAP
0000000000000002000000000000000000
00000000000004BF100000000000000000
000000000000AFFF600000000000000000
0000000000005FFFB00000000000000000
0000000000000CFFF10000000000000000
00000000000004FFF60000000000000000
00000000000000AFF70000000000000000
0000000000000028200000000000000000
0000000000000000000000000000000000
0000000000000000000000000000000000
00000005AA998776520000000000000000
0000000029FFFFFFFB0000000000000000
000000000029FFFFFF4000000000000000
00000000000029FFFFB000000000000000
00000000000001EFFFF400000000000000
00000000000009FFFFFB00000000000000
0000000000002FFFFFFF30000000000000
0000000000009FE7FFFFB0000000000000
000000000002FF70DFFFF3000000000000
00000000000AFE106FFFFA000000000000
00000000003FF6000EFFFF300000000000
0000000000BFD00007FFFFA00000000000
0000000004FFEDCCBBFFFFF30000000000
000000000BFFFFFFFFFFFFFA0000000000
000000004FFFEEDDCBBFFFFF2000000000
00000000CFC00000000BFFFFA000000000
00000005FF4000000004FFFFF200000000
0000006DFC0000000000DFFFF900000000
00028EFFFF81000000006FFFFF20000000
04AFFFFFFFFD400000001EFFFF90000000
13456789ABCDE910000008FFFFFD840000
0000000000000000000006FFFFFFFFE920
000000000000000000004FFFFFFEB73000
00000000000000000003EFFEB730000000
0000000000000000003DB7300000000000
0000000000000000002000000000000000
ENDCHAR
STARTCHAR Aacute
ENCODING 193
SWIDTH 788 0
DWIDTH 22 0
BBX 33 36 -5 -7
BITMAP
0000000000000001100000000000000000
0000000000000006E92000000000000000
000000000000000BFFF200000000000000
000000000000002FFFA000000000000000
000000000000007FFF2000000000000000
00000000000000CFF90000000000000000
000000000000008EE10000000000000000
0000000000000001300000000000000000
0000000000000000000000000000000000
0000000000000000000000000000000000
00000005AA998776520000000000000000
0000000029FFFFFFFB0000000000000000
000000000029FFFFFF4000000000000000
00000000000029FFFFB000000000000000
00000000000001EFFFF400000000000000
00000000000009FFFFFB00000000000000
0000000000002FFFFFFF30000000000000
0000000000009FE7FFFFB0000000000000
000000000002FF70DFFFF3000000000000
00000000000AFE106FFFFA000000000000
00000000003FF6000EFFFF300000000000
0000000000BFD00007FFFFA00000000000
0000000004FFEDCCBBFFFFF30000000000
000000000BFFFFFFFFFFFFFA0000000000
000000004FFFEEDDCBBFFFFF2000000000
00000000CFC00000000BFFFFA000000000
00000005FF4000000004FFFFF200000000
0000006DFC0000000000DFFFF900000000
00028EFFFF81000000006FFFFF20000000
04AFFFFFFFFD400000001EFFFF90000000
13456789ABCDE910000008FFFFFD840000
0000000000000000000006FFFFFFFFE920
000000000000000000004FFFFFFEB73000
00000000000000000003EFFEB730000000
0000000000000000003DB7300000000000
0000000000000000002000000000000000
ENDCHAR
STARTCHAR Acircumflex
ENCODING 194
SWIDTH 788 0
DWIDTH 22 0
BBX 33 34 -5 -7
BITMAP
0000000000000008A00000000000000000
000000000000005FF90000000000000000
00000000000003EFFF6000000000000000
0000000000001DFFFFF300000000000000
000000000000BFFDCFFD10000000000000
000000000008FF9106EFB0000000000000
000000000002A300002A40000000000000
0000000000000000000000000000000000
00000005AA998776520000000000000000
0000000029FFFFFFFB0000000000000000
000000000029FFFFFF4000000000000000
00000000000029FFFFB000000000000000
00000000000001EFFFF400000000000000
00000000000009FFFFFB00000000000000
0000000000002FFFFFFF30000000000000
0000000000009FE7FFFFB0000000000000
000000000002FF70DFFFF3000000000000
00000000000AFE106FFFFA000000000000
00000000003FF6000EFFFF300000000000
0000000000BFD00007FFFFA00000000000
0000000004FFEDCCBBFFFFF30000000000
000000000BFFFFFFFFFFFFFA0000000000
000000004FFFEEDDCBBFFFFF2000000000
00000000CFC00000000BFFFFA000000000
00000005FF4000000004FFFFF200000000
0000006DFC0000000000DFFFF900000000
00028EFFFF81000000006FFFFF20000000
04AFFFFFFFFD400000001EFFFF90000000
13456789ABCDE910000008FFFFFD840000
0000000000000000000006FFFFFFFFE920
000000000000000000004FFFFFFEB73000
00000000000000000003EFFEB730000000
0000000000000000003DB7300000000000
0000000000000000002000000000000000
ENDCHAR
STARTCHAR Atilde
ENCODING 195
SWIDTH 788 0
DWIDTH 22 0
BBX 33 33 -5 -7
BITMAP
0000000000000464000150000000000000
000000000000DFFFE87E80000000000000
000000000000FFFFFFFF80000000000000
000000000000FECFFFFF80000000000000
000000000000B2028CC920000000000000
0000000000000000000000000000000000
0000000000000000000000000000000000
00000005AA998776520000000000000000
0000000029FFFFFFFB0000000000000000
000000000029FFFFFF4000000000000000
00000000000029FFFFB000000000000000
00000000000001EFFFF400000000000000
00000000000009FFFFFB00000000000000
0000000000002FFFFFFF30000000000000
0000000000009FE7FFFFB0000000000000
000000000002FF70DFFFF3000000000000
00000000000AFE106FFFFA000000000000
00000000003FF6000EFFFF300000000000
0000000000BFD00007FFFFA00000000000
0000000004FFEDCCBBFFFFF30000000000
000000000BFFFFFFFFFFFFFA0000000000
000000004FFFEEDDCBBFFFFF2000000000
00000000CFC00000000BFFFFA000000000
00000005FF4000000004FFFFF200000000
0000006DFC0000000000DFFFF900000000
00028EFFFF81000000006FFFFF20000000
04AFFFFFFFFD400000001EFFFF90000000
13456789ABCDE910000008FFFFFD840000
0000000000000000000006FFFFFFFFE920
000000000000000000004FFFFFFEB73000
00000000000000000003EFFEB730000000
0000000000000000003DB7300000000000
0000000000000000002000000000000000
ENDCHAR
STARTCHAR Adieresis
ENCODING 196
SWIDTH 788 0
DWIDTH 22 0
BBX 33 32 -5 -7
BITMAP
0000000000002630026200000000000000
000000000001EFE21EFE10000000000000
000000000001FFF32FFF30000000000000
0000000000008E9008E900000000000000
0000000000000000000000000000000000
0000000000000000000000000000000000
00000005AA998776520000000000000000
0000000029FFFFFFFB0000000000000000
000000000029FFFFFF4000000000000000
00000000000029FFFFB000000000000000
00000000000001EFFFF400000000000000
00000000000009FFFFFB00000000000000
0000000000002FFFFFFF30000000000000
0000000000009FE7FFFFB0000000000000
000000000002FF70DFFFF3000000000000
00000000000AFE106FFFFA000000000000
00000000003FF6000EFFFF300000000000
0000000000BFD00007FFFFA00000000000
0000000004FFEDCCBBFFFFF30000000000
000000000BFFFFFFFFFFFFFA0000000000
000000004FFFEEDDCBBFFFFF2000000000
00000000CFC00000000BFFFFA000000000
00000005FF4000000004FFFFF200000000
0000006DFC0000000000DFFFF900000000
00028EFFFF81000000006FFFFF20000000
04AFFFFFFFFD400000001EFFFF90000000
13456789ABCDE910000008FFFFFD840000
0000000000000000000006FFFFFFFFE920
000000000000000000004FFFFFFEB73000
00000000000000000003EFFEB730000000
0000000000000000003DB7300000000000
0000000000000000002000000000000000
ENDCHAR
STARTCHAR Aring
ENCODING 197
SWIDTH 788 0
DWIDTH 22 0
BBX 33 31 -5 -7
BITMAP
0000000000000029A60000000000000000
00000000000002EFFF8000000000000000
00000000000009F84EF100000000000000
0000000000000AF40CF200000000000000
00000000000006FECFC000000000000000
00000005AA9887DFFD2000000000000000
0000000029FFFFFFFB0000000000000000
000000000029FFFFFF3000000000000000
00000000000029FFFFB000000000000000
00000000000001EFFFF300000000000000
00000000000009FFFFFB00000000000000
0000000000002FFFFFFF30000000000000
0000000000009FE7FFFFA0000000000000
000000000002FF70DFFFF3000000000000
00000000000AFE106FFFFA000000000000
00000000003FF6000EFFFF300000000000
0000000000BFD00007FFFFA00000000000
0000000004FFEDCCBBFFFFF20000000000
000000000BFFFFFFFFFFFFFA0000000000
000000004FFFEEDDCBBFFFFF2000000000
00000000CFC00000000BFFFFA000000000
00000005FF4000000004FFFFF200000000
0000006DFC0000000000DFFFF900000000
00028EFFFF81000000006FFFFF20000000
04AFFFFFFFFD400000001EFFFF90000000
13456789ABCDE910000008FFFFFD840000
0000000000000000000006FFFFFFFFE920
000000000000000000004FFFFFFEB73000
00000000000000000003EFFEB730000000
0000000000000000003DB7300000000000
0000000000000000002000000000000000
ENDCHAR
STARTCHAR AE
ENCODING 198
SWIDTH 1019 0
DWIDTH 29 0
BBX 35 23 -7 -2
BITMAP
000000000000000000000000000000112310
0000000001123445667899ABBCDEEFFFFF60
0000000004DFFFFFFFFFFFFFFFFFFFFFFF60
000000000008FFFFFFFFFFFFEDBA976EFF50
0000000000002BFFFFFFFFFC00000008FF40
000000000000006FFFBFFFFC00001001FF40
000000000000006FFC4FFFFC00007000AF30
00000000000001EFF33FFFFC0002C0003F30
0000000000000AFF703FFFFB000AC0000C20
0000000000004FFC003FFFFB002FB0000610
000000000000DFF3002FFFFB00AFB0000000
000000000008FF70002FFFFECDFFB0000100
00000000002FFC00001FFFFFFFFFA0000600
0000000000BFF522111FFFFFFFFFA0001A00
0000000005FFFFFFFFFFFFF912DFA0006A00
000000001EFFFFFFFFFFFFF9004F9000AA00
000000009FFBBAAA998FFFF9000A9001EB00
00000003FF700000000EFFF800018005FB00
0000000CFC000000000EFFF80000100AFB00
000016CFF500000015BFFFFDBBBBBCCEFB00
0039EFFFFF700039EFFFFFFFFFFFFFFFFB00
5CFFFFFFFFFB37AA99999999988888888600
00123456789AA20000000000000000000000
ENDCHAR
STARTCHAR Ccedilla
ENCODING 199
SWIDTH 766 0
DWIDTH 21 0
BBX 22 31 0 -10
BITMAP
0000000000000000000042
00000000012321000001D0
00000038CFFFFFC6100BC0
00002BFFFFFFFFFFD38F90
0004EFFFFFFDCDFFFFFF70
004EFFFFE720002AFFFF50
01DFFFFD200000006FFF20
08FFFFE30000000008FF00
0DFFFF800000000000DC00
3FFFFF2000000000006A00
5FFFFE0000000000000600
6FFFFC0000000000000000
6FFFFC0000000000000000
5FFFFD0000000000000000
2FFFFF1000000000000200
0DFFFF6000000000004600
06FFFFD10000000000A900
01DFFFF90000000004FC00
003FFFFFA10000005EFF00
0005FFFFFEA6557CFFFF30
00004DFFFFFFFFFFFE5D60
0000017DFFFFFFFF920490
000000002CFB8741000050
000000003FF20000000000
00000000CFFD6000000000
00000004DFFFF500000000
00000000003BFC00000000
000000004207FD00000000
00000003EEAEFA00000000
00000003EFFFE200000000
0000000028A82000000000
ENDCHAR
STARTCHAR Egrave
ENCODING 200
SWIDTH 781 0
DWIDTH 22 0
BBX 24 30 -3 -1
BITMAP
000000000000001000000000
0000000000017D9000000000
00000000002EFFE000000000
00000000000BFFF500000000
000000000003FFFA00000000
000000000000AFFE10000000
0000000000002FFD20000000
000000000000075000000000
000000000000000000000122
000000012345678ABCDEFFFB
16ABCDEFFFFFFFFFFFFFFFFA
0038DFFFFFFFFDCBA976DFF9
0000038EFFFF500000007FF9
0000000BFFFF500001001EF8
0000000BFFFF4000080008F7
0000000AFFFF40005A0001F7
0000000AFFFF4000DA000096
00000009FFFF3006F9000025
00000008FFFF301EF9000001
00000008FFFFCCDFF9000020
00000007FFFFFFFFF8000070
00000007FFFFFFFFF80000C0
00000006FFFF214FF80003E0
00000006FFFF1008F70008E0
00000005FFFF1000D7000DE0
00000005FFFF100036003FE0
00000004FFFF000001008FE0
0000027DFFFFBBBBBBCCEFF0
0004AFFFFFFFFFFFFFFFFFF0
028AA9999999998888888870
ENDCHAR
STARTCHAR Eacute
ENCODING 201
SWIDTH 781 0
DWIDTH 22 0
BBX 24 30 -3 -1
BITMAP
000000000000002000000000
00000000000000DC50000000
00000000000003FFFA000000
00000000000008FFF3000000
0000000000000DFFA0000000
0000000000004FFF20000000
0000000000003BF900000000
000000000000003100000000
000000000000000000000122
000000012345678ABCDEFFFB
16ABCDEFFFFFFFFFFFFFFFFA
0038DFFFFFFFFDCBA976DFF9
0000038EFFFF500000007FF9
0000000BFFFF500001001EF8
0000000BFFFF4000080008F7
0000000AFFFF40005A0001F7
0000000AFFFF4000DA000096
00000009FFFF3006F9000025
00000008FFFF301EF9000001
00000008FFFFCCDFF9000020
00000007FFFFFFFFF8000070
00000007FFFFFFFFF80000C0
00000006FFFF214FF80003E0
00000006FFFF1008F70008E0
00000005FFFF1000D7000DE0
00000005FFFF100036003FE0
00000004FFFF000001008FE0
0000027DFFFFBBBBBBCCEFF0
0004AFFFFFFFFFFFFFFFFFF0
028AA9999999998888888870
ENDCHAR
STARTCHAR Ecircumflex
ENCODING 202
SWIDTH 781 0
DWIDTH 22 0
BBX 24 30 -3 -1
BITMAP
0000000000002C4000000000
000000000001CFE200000000
00000000000AFFFC10000000
00000000007FFFFFA0000000
0000000004FFFBEFF7000000
000000001EFD402BFF400000
000000000880000069100000
000000000000000000000000
000000000000000000000122
000000012345678ABCDEFFFB
16ABCDEFFFFFFFFFFFFFFFFA
0038DFFFFFFFFDCBA976DFF9
0000038EFFFF500000007FF9
0000000BFFFF500001001EF8
0000000BFFFF4000080008F7
0000000AFFFF40005A0001F7
0000000AFFFF4000DA000096
00000009FFFF3006F9000025
00000008FFFF301EF9000001
00000008FFFFCCDFF9000020
00000007FFFFFFFFF8000070
00000007FFFFFFFFF80000C0
00000006FFFF214FF80003E0
00000006FFFF1008F70008E0
00000005FFFF1000D7000DE0
00000005FFFF100036003FE0
00000004FFFF000001008FE0
0000027DFFFFBBBBBBCCEFF0
0004AFFFFFFFFFFFFFFFFFF0
028AA9999999998888888870
ENDCHAR
STARTCHAR Edieresis
ENCODING 203
SWIDTH 781 0
DWIDTH 22 0
BBX 24 27 -3 -1
BITMAP
000000000026300262000000
0000000001EFE21EFE100000
0000000001FFF32FFF300000
00000000008E9008E9000000
000000000000000000000000
000000000000000000000122
000000012345678ABCDEFFFB
16ABCDEFFFFFFFFFFFFFFFFA
0038DFFFFFFFFDCBA976DFF9
0000038EFFFF500000007FF9
0000000BFFFF500001001EF8
0000000BFFFF4000080008F7
0000000AFFFF40005A0001F7
0000000AFFFF4000DA000096
00000009FFFF3006F9000025
00000008FFFF301EF9000001
00000008FFFFCCDFF9000020
00000007FFFFFFFFF8000070
00000007FFFFFFFFF80000C0
00000006FFFF214FF80003E0
00000006FFFF1008F70008E0
00000005FFFF1000D7000DE0
00000005FFFF100036003FE0
00000004FFFF000001008FE0
0000027DFFFFBBBBBBCCEFF0
0004AFFFFFFFFFFFFFFFFFF0
028AA9999999998888888870
ENDCHAR
STARTCHAR Igrave
ENCODING 204
SWIDTH 445 0
DWIDTH 12 0
BBX 18 32 -3 -3
BITMAP
000000000200000000
00000006CC00000000
000000DFFF30000000
0000008FFF80000000
0000001EFFD0000000
00000007FFF3000000
00000000DFE5000000
000000005710000000
000000000000000000
144444433333322222
028EFFFFFFFFFFFE82
00006CFFFFFFFB5000
0000003FFFFF400000
0000000EFFFF200000
0000000DFFFF100000
0000000DFFFF100000
0000000CFFFF000000
0000000BFFFF000000
0000000BFFFF000000
0000000AFFFE000000
0000000AFFFE000000
00000009FFFD000000
00000008FFFD000000
00000008FFFC000000
00000007FFFC000000
00000007FFFC000000
00000006FFFB000000
00000005FFFB000000
00000005FFFA000000
0000017DFFFE930000
0004AFFFFFFFFFC710
005777777777777762
ENDCHAR
STARTCHAR Iacute
ENCODING 205
SWIDTH 445 0
DWIDTH 12 0
BBX 18 32 -3 -3
BITMAP
000000000010000000
0000000005F9200000
000000000AFFF30000
000000001EFFC00000
000000005FFF300000
00000000AFFA000000
000000007EF2000000
000000000040000000
000000000000000000
144444433333322222
028EFFFFFFFFFFFE82
00006CFFFFFFFB5000
0000003FFFFF400000
0000000EFFFF200000
0000000DFFFF100000
0000000DFFFF100000
0000000CFFFF000000
0000000BFFFF000000
0000000BFFFF000000
0000000AFFFE000000
0000000AFFFE000000
00000009FFFD000000
00000008FFFD000000
00000008FFFC000000
00000007FFFC000000
00000007FFFC000000
00000006FFFB000000
00000005FFFB000000
00000005FFFA000000
0000017DFFFE930000
0004AFFFFFFFFFC710
005777777777777762
ENDCHAR
STARTCHAR Icircumflex
ENCODING 206
SWIDTH 445 0
DWIDTH 12 0
BBX 18 31 -3 -3
BITMAP
000000002C50000000
00000000CFE3000000
00000009FFFD100000
0000006FFFFFB00000
000003FFFBEFF80000
00001DFD402BFF4000
0000078100005A1000
000000000000000000
144444433333322222
028EFFFFFFFFFFFE82
00006CFFFFFFFB5000
0000003FFFFF400000
0000000EFFFF200000
0000000DFFFF100000
0000000DFFFF100000
0000000CFFFF000000
0000000BFFFF000000
0000000BFFFF000000
0000000AFFFE000000
0000000AFFFE000000
00000009FFFD000000
00000008FFFD000000
00000008FFFC000000
00000007FFFC000000
00000007FFFC000000
00000006FFFB000000
00000005FFFB000000
00000005FFFA000000
0000017DFFFE930000
0004AFFFFFFFFFC710
005777777777777762
ENDCHAR
STARTCHAR Idieresis
ENCODING 207
SWIDTH 445 0
DWIDTH 12 0
BBX 18 28 -3 -3
BITMAP
000000560005600000
000006FF907FF90000
000008FFB09FFB0000
000002CD402CD30000
000000000000000000
144444433333322222
028EFFFFFFFFFFFE82
00006CFFFFFFFB5000
0000003FFFFF400000
0000000EFFFF200000
0000000DFFFF100000
0000000DFFFF100000
0000000CFFFF000000
0000000BFFFF000000
0000000BFFFF000000
0000000AFFFE000000
0000000AFFFE000000
00000009FFFD000000
00000008FFFD000000
00000008FFFC000000
00000007FFFC000000
00000007FFFC000000
00000006FFFB000000
00000005FFFB000000
00000005FFFA000000
0000017DFFFE930000
0004AFFFFFFFFFC710
005777777777777762
ENDCHAR
STARTCHAR Eth
ENCODING 208
SWIDTH 1000 0
DWIDTH 28 0
BBX 27 20 0 -1
BITMAP
39BBBAAAAAAAAAAAA96300000000
004AFFFFFFFFFFFFFFFFD7100000
000028EFFFFFFFFFFFFFFFE50000
00000017FFFFF700127DFFFF7000
00000001FFFFF6000001BFFFF400
00000000FFFFF50000001EFFFE00
00000000EFFFF500000008FFFF50
00000000DFFFF400000003FFFFA0
001A9887DFFFF633210001FFFFC0
003FFFFFFFFFFFFFFB0000FFFFD0
004FFFFFFFFFFFFFF90001FFFFC0
004EDDDCDFFFFAAA950002FFFFB0
000000007FFFF000000004FFFF70
000000006FFFE000000008FFFF30
000000005FFFD00000001EFFFB00
000000005FFFC0000001BFFFF300
000000005FFFD433358DFFFF5000
0000002AFFFFFFFFFFFFFFD40000
000019FFFFFFFFFFFFFEA5000000
0016CCBA98876554432000000000
ENDCHAR
STARTCHAR Ntilde
ENCODING 209
SWIDTH 840 0
DWIDTH 24 0
BBX 30 30 -3 -2
BITMAP
000000000002662000510000000000
00000000005FFFFB7AF20000000000
00000000006FFFFFFFF20000000000
00000000006FDDFFFFF20000000000
000000000067004ACB600000000000
000000000000000000000000000000
000000000000000000000000000000
000000000000012223333444555561
05CDCCCCCBBB305BFFFFFFFFFFF920
0016DFFFFFFFE20028EFFFFFF92000
000005CFFFFFFC000005CFFB100000
0000000BFFFFFF9000002FF9000000
0000000AFFFFFFF600002FF8000000
0000000AFFFFFFFF40002FF8000000
0000000AFFAFFFFFE2002FF8000000
0000000AFF1BFFFFFC001FF7000000
0000000AFF11DFFFFFA01FF7000000
0000000AFF102EFFFFF71FF7000000
0000000AFF1004FFFFFF5FF6000000
0000000AFF20005FFFFFEFF6000000
0000000AFF200008FFFFFFF6000000
0000000AFF300000AFFFFFF5000000
0000000AFF3000000BFFFFF5000000
0000000AFF40000001DFFFF5000000
0000000BFF700000002EFFF5000000
000017EFFFFE83000004FFF4000000
0029EFFFFFFFFFC710005FF4000000
17CCCCCCCCCCDDDDD83008F4000000
0000000000000000000000A3000000
000000000000000000000001000000
ENDCHAR
STARTCHAR Ograve
ENCODING 210
SWIDTH 808 0
DWIDTH 23 0
BBX 23 28 0 -1
BITMAP
000000000000100000000000
00000000016DA00000000000
000000002EFFF10000000000
000000000AFFF60000000000
0000000002FFFB0000000000
00000000009FFF1000000000
00000000001EFE3000000000
000000000006600000000000
000000000000000000000000
000000000133320000000000
0000016BEFFFFFEA50000000
00018EFFFFFFFFFFFD400000
002CFFFFFD978CFFFFF70000
00CFFFFE5000005FFFFF6000
08FFFFE300000005FFFFE200
0EFFFF6000000000CFFFF800
3FFFFF10000000006FFFFD00
5FFFFC00000000003FFFFF00
6FFFFB00000000002FFFFF10
5FFFFC00000000003FFFFF00
3FFFFF10000000006FFFFC00
0DFFFF5000000000BFFFF700
06FFFFD100000004FFFFE100
00BFFFFB1000005EFFFF4000
001BFFFFE9668CFFFFE50000
00007EFFFFFFFFFFFB300000
0000017CFFFFFFD940000000
000000001345420000000000
ENDCHAR
STARTCHAR Oacute
ENCODING 211
SWIDTH 808 0
DWIDTH 23 0
BBX 23 27 0 -1
BITMAP
000000000001000000000000
000000000009E71000000000
00000000000EFFE100000000
00000000004FFF8000000000
00000000009FFE1000000000
0000000000EFF60000000000
0000000001AFD00000000000
000000000001300000000000
000000000133320000000000
0000016BEFFFFFEA50000000
00018EFFFFFFFFFFFD400000
002CFFFFFD978CFFFFF70000
00CFFFFE5000005FFFFF6000
08FFFFE300000005FFFFE200
0EFFFF6000000000CFFFF800
3FFFFF10000000006FFFFD00
5FFFFC00000000003FFFFF00
6FFFFB00000000002FFFFF10
5FFFFC00000000003FFFFF00
3FFFFF10000000006FFFFC00
0DFFFF5000000000BFFFF700
06FFFFD100000004FFFFE100
00BFFFFB1000005EFFFF4000
001BFFFFE9668CFFFFE50000
00007EFFFFFFFFFFFB300000
0000017CFFFFFFD940000000
000000001345420000000000
ENDCHAR
STARTCHAR Ocircumflex
ENCODING 212
SWIDTH 808 0
DWIDTH 23 0
BBX 23 27 0 -1
BITMAP
00000000004C200000000000
0000000002EFC10000000000
000000001CFFFA0000000000
00000000AFFFFF7000000000
00000007FFFAFFF400000000
0000004FFB204DFE10000000
000000196000008800000000
000000000000000000000000
000000000133320000000000
0000016BEFFFFFEA50000000
00018EFFFFFFFFFFFD400000
002CFFFFFD978CFFFFF70000
00CFFFFE5000005FFFFF6000
08FFFFE300000005FFFFE200
0EFFFF6000000000CFFFF800
3FFFFF10000000006FFFFD00
5FFFFC00000000003FFFFF00
6FFFFB00000000002FFFFF10
5FFFFC00000000003FFFFF00
3FFFFF10000000006FFFFC00
0DFFFF5000000000BFFFF700
06FFFFD100000004FFFFE100
00BFFFFB1000005EFFFF4000
001BFFFFE9668CFFFFE50000
00007EFFFFFFFFFFFB300000
0000017CFFFFFFD940000000
000000001345420000000000
ENDCHAR
STARTCHAR Otilde
ENCODING 213
SWIDTH 808 0
DWIDTH 23 0
BBX 23 26 0 -1
BITMAP
000000002662000510000000
00000005FFFFB7AF20000000
00000006FFFFFFFF20000000
00000006FDDFFFFF20000000
000000067004ACB600000000
000000000000000000000000
000000000000000000000000
000000000133320000000000
0000016BEFFFFFEA50000000
00018EFFFFFFFFFFFD400000
002CFFFFFD978CFFFFF70000
00CFFFFE5000005FFFFF6000
08FFFFE300000005FFFFE200
0EFFFF6000000000CFFFF800
3FFFFF10000000006FFFFD00
5FFFFC00000000003FFFFF00
6FFFFB00000000002FFFFF10
5FFFFC00000000003FFFFF00
3FFFFF10000000006FFFFC00
0DFFFF5000000000BFFFF700
06FFFFD100000004FFFFE100
00BFFFFB1000005EFFFF4000
001BFFFFE9668CFFFFE50000
00007EFFFFFFFFFFFB300000
0000017CFFFFFFD940000000
000000001345420000000000
ENDCHAR
STARTCHAR Odieresis
ENCODING 214
SWIDTH 808 0
DWIDTH 23 0
BBX 23 24 0 -1
BITMAP
000000016400164000000000
0000000AFF50BFF500000000
0000000CFF70DFF700000000
00000004DC105DB100000000
000000000000000000000000
000000000133320000000000
0000016BEFFFFFEA50000000
00018EFFFFFFFFFFFD400000
002CFFFFFD978CFFFFF70000
00CFFFFE5000005FFFFF6000
08FFFFE300000005FFFFE200
0EFFFF6000000000CFFFF800
3FFFFF10000000006FFFFD00
5FFFFC00000000003FFFFF00
6FFFFB00000000002FFFFF10
5FFFFC00000000003FFFFF00
3FFFFF10000000006FFFFC00
0DFFFF5000000000BFFFF700
06FFFFD100000004FFFFE100
00BFFFFB1000005EFFFF4000
001BFFFFE9668CFFFFE50000
00007EFFFFFFFFFFFB300000
0000017CFFFFFFD940000000
000000001345420000000000
ENDCHAR
STARTCHAR multiply
ENCODING 215
SWIDTH 556 0
DWIDTH 16 0
BBX 16 15 0 2
BITMAP
001C500000067000
02DFF400005FF600
2DFFFE3004FFFF50
5FFFFFE33EFFFFE1
05FFFFFEEFFFFE40
004EFFFFFFFFE300
0003EFFFFFFE3000
00005FFFFFF20000
0002DFFFFFFA0000
001DFFFFFFFF9000
01CFFFFBDFFFF700
1CFFFF901CFFFF60
4FFFF80001CFFFD0
07FF7000001BFC10
0086000000018100
ENDCHAR
STARTCHAR Oslash
ENCODING 216
SWIDTH 808 0
DWIDTH 23 0
BBX 23 25 0 -4
BITMAP
000000000000000110000000
0000000000000008E5000000
000000000000002FFFB20000
00000000013332AFFFF50000
0000016BEFFFFFFFFFB00000
00018EFFFFFFFFFFFF600000
002CFFFFFD97BFFFFFF70000
00CFFFFE6000DFFFFFFF5000
08FFFFE30006FFFFFFFFE200
0EFFFF70001EFFF9CFFFF800
3FFFFF10007FFFD16FFFFD00
5FFFFC0001EFFF504FFFFF00
6FFFFB0009FFFA002FFFFF10
6FFFFC002FFFE1003FFFFF00
3FFFFF10AFFF60006FFFFC00
0DFFFF64FFFB0000BFFFF700
06FFFFDCFFF20005FFFFE100
00AFFFFFFF70005EFFFF4000
001BFFFFFF668CFFFFE50000
00007EFFFFFFFFFFFB300000
00001EFFFFFFFFD940000000
00008FFE2355420000000000
0001EFF50000000000000000
00004DA00000000000000000
000000100000000000000000
ENDCHAR
STARTCHAR Ugrave
ENCODING 217
SWIDTH 725 0
DWIDTH 20 0
BBX 26 29 -3 -1
BITMAP
00000000000001000000000000
0000000000029F500000000000
00000000006FFFA00000000000
00000000002EFFE10000000000
000000000008FFF50000000000
000000000001EFFA0000000000
0000000000006FFB0000000000
00000000000009300000000000
00000000000000000000000000
00000000000000166655554441
16BCBA9876543203AFFFFFFD50
0005CFFFFFFFA40003CFFE7100
00000AFFFFA10000005FFB0000
00000AFFFF600000004FFB0000
00000BFFFF600000003FFA0000
00000BFFFF600000003FFA0000
00000CFFFF500000002FF90000
00000CFFFF500000002FF80000
00000DFFFF500000001FF80000
00000DFFFF500000000FF70000
00000DFFFF500000000FF70000
00000DFFFF500000000FF60000
00000CFFFF700000002FF40000
000009FFFFD00000007FF10000
000003FFFFF6000002EFB00000
000000AFFFFF81016EFF300000
0000001CFFFFFFFFFFF7000000
000000019FFFFFFFFD40000000
000000000269BBA74000000000
ENDCHAR
STARTCHAR Uacute
ENCODING 218
SWIDTH 725 0
DWIDTH 20 0
BBX 26 29 -3 -1
BITMAP
00000000000002000000000000
0000000000000EC50000000000
0000000000005FFF9000000000
000000000000AFFF2000000000
000000000001EFF90000000000
000000000005FFE10000000000
000000000004CF700000000000
00000000000003100000000000
00000000000000000000000000
00000000000000166655554441
16BCBA9876543203AFFFFFFD50
0005CFFFFFFFA40003CFFE7100
00000AFFFFA10000005FFB0000
00000AFFFF600000004FFB0000
00000BFFFF600000003FFA0000
00000BFFFF600000003FFA0000
00000CFFFF500000002FF90000
00000CFFFF500000002FF80000
00000DFFFF500000001FF80000
00000DFFFF500000000FF70000
00000DFFFF500000000FF70000
00000DFFFF500000000FF60000
00000CFFFF700000002FF40000
000009FFFFD00000007FF10000
000003FFFFF6000002EFB00000
000000AFFFFF81016EFF300000
0000001CFFFFFFFFFFF7000000
000000019FFFFFFFFD40000000
000000000269BBA74000000000
ENDCHAR
STARTCHAR Ucircumflex
ENCODING 219
SWIDTH 725 0
DWIDTH 20 0
BBX 26 28 -3 -1
BITMAP
0000000000002C400000000000
000000000001CFE20000000000
00000000000AFFFC1000000000
00000000007FFFFFA000000000
0000000004FFFBEFF700000000
000000001EFD402BFF40000000
00000000088000006910000000
00000000000000000000000000
00000000000000166655554441
16BCBA9876543203AFFFFFFD50
0005CFFFFFFFA40003CFFE7100
00000AFFFFA10000005FFB0000
00000AFFFF600000004FFB0000
00000BFFFF600000003FFA0000
00000BFFFF600000003FFA0000
00000CFFFF500000002FF90000
00000CFFFF500000002FF80000
00000DFFFF500000001FF80000
00000DFFFF500000000FF70000
00000DFFFF500000000FF70000
00000DFFFF500000000FF60000
00000CFFFF700000002FF40000
000009FFFFD00000007FF10000
000003FFFFF6000002EFB00000
000000AFFFFF81016EFF300000
0000001CFFFFFFFFFFF7000000
000000019FFFFFFFFD40000000
000000000269BBA74000000000
ENDCHAR
STARTCHAR Udieresis
ENCODING 220
SWIDTH 725 0
DWIDTH 20 0
BBX 26 26 -3 -1
BITMAP
00000000002630026200000000
0000000001EFE21EFE10000000
0000000001FFF32FFF30000000
00000000008E9008E900000000
00000000000000000000000000
00000000000000000000000000
00000000000000166655554441
16BCBA9876543203AFFFFFFD50
0005CFFFFFFFA40003CFFE7100
00000AFFFFA10000005FFB0000
00000AFFFF600000004FFB0000
00000BFFFF600000003FFA0000
00000BFFFF600000003FFA0000
00000CFFFF500000002FF90000
00000CFFFF500000002FF80000
00000DFFFF500000001FF80000
00000DFFFF500000000FF70000
00000DFFFF500000000FF70000
00000DFFFF500000000FF60000
00000CFFFF700000002FF40000
000009FFFFD00000007FF10000
000003FFFFF6000002EFB00000
000000AFFFFF81016EFF300000
0000001CFFFFFFFFFFF7000000
000000019FFFFFFFFD40000000
000000000269BBA74000000000
ENDCHAR
STARTCHAR Yacute
ENCODING 221
SWIDTH 848 0
DWIDTH 24 0
BBX 30 29 -4 -2
BITMAP
000000000000000001000000000000
000000000000000009E71000000000
00000000000000000EFFE000000000
00000000000000005FFF7000000000
0000000000000000AFFD1000000000
0000000000000001EFF60000000000
0000000000000001AFC00000000000
000000000000000001300000000000
000000000011234100000000000000
17ABBCDEEFFFFE6000000000000000
0039EFFFFFFFA10001665544322110
000005AFFFFF8000003BFFFFFFFE82
00000003EFFFF50000005EFFFC5000
000000004FFFFF3000001CFB300000
0000000006FFFFE20001CFB0000000
00000000007FFFFC101CFC10000000
000000000009FFFFA1CFD100000000
000000000000BFFFFEFE2000000000
0000000000001CFFFFE30000000000
00000000000002DFFF500000000000
00000000000000AFFF400000000000
00000000000000BFFF600000000000
00000000000000BFFF700000000000
00000000000000CFFF800000000000
00000000000000CFFFA00000000000
00000000000000DFFFB00000000000
00000000000002EFFFE61000000000
000000000004BFFFFFFFFA51000000
0000000005CEEEEDDDDDDDDC720000
ENDCHAR
STARTCHAR Thorn
ENCODING 222
SWIDTH 745 0
DWIDTH 21 0
BBX 25 19 -3 -1
BITMAP
16CDDDCCBBBAA9996100000000
0006DFFFFFFFFFA40000000000
000005BFFFFD61000000000000
0000001FFFF822100000000000
0000000FFFFFFFFEDA84100000
0000000FFFFFFFFFFFFFE91000
0000000FFFFB76679CFFFFE300
0000000FFFF700000029FFFC00
0000000EFFF700000000BFFF10
0000000EFFF800000001DFFE00
0000000EFFF80000016DFFF600
0000000DFFFB6689CFFFFD4000
0000000DFFFFFFFFFFEA500000
0000000DFFFFECA86200000000
0000000DFFFF00000000000000
0000000DFFFF00000000000000
000005DFFFFFC6000000000000
0004CFFFFFFFFFE82000000000
029DDCCCCCBBBBBAA610000000
ENDCHAR
STARTCHAR germandbls
ENCODING 223
SWIDTH 986 0
DWIDTH 28 0
BBX 30 38 -2 -12
BITMAP
000000000017CDEC94000000000000
0000000005EFFFFFFFB10000000000
000000005FFFFB9BFFFD2000000000
00000002EFFD20002DFFC000000000
00000009FFF3000002FFF700000000
0000001FFFA0000000AFFD00000000
0000005FFF600000006FFF20000000
0000008FFF400000005FFF40000000
000000AFFF300000004FFF50000000
000000BFFF400000006FFF30000000
000000CFFF50000000CFFE00000000
001111CFFF70000006FFF800000000
009FFFFFFF9000001EFFF100000000
009FFFFFFFA000009FFF8000000000
004777AFFFC00003FFFE1000000000
0000005FFFE00009FFF80000000000
0000003FFFF1000DFFF40000000000
0000001FFFF3000FFFF50000000000
0000000EFFF4000EFFFC1000000000
0000000CFFF6000AFFFFD400000000
0000000AFFF80002EFFFFFD7200000
00000008FFFA00004EFFFFFFFB4000
00000006FFFC000103CFFFFFFFFC30
00000004FFFD00035005DFFFFFFFE2
00000002FFFF0004E10004BFFFFFFA
00000001FFFF2005FD100002AFFFFD
00000000EFFF4006FFD200000AFFFC
00000000DFFF5007FFFF94114DFFF6
00000000BFFF6007FEFFFFFFFFFF90
00210000AFFF7008E16CFFFFFFB400
0CFE4000AFFF600950001344310000
5FFFC000BFFF300500000000000000
5FFFB000EFFE000000000000000000
1FFF5004FFF9000000000000000000
09FFD55DFFE1000000000000000000
01BFFFFFFE40000000000000000000
0007DFFEA200000000000000000000
000001100000000000000000000000
ENDCHAR
STARTCHAR agrave
ENCODING 224
SWIDTH 572 0
DWIDTH 16 0
BBX 18 26 0 -1
BITMAP
000000000010000000
0000000029F5000000
00000006FFFA000000
00000002EFFE100000
000000008FFF500000
000000001EFFA00000
0000000006FFB00000
000000000093000000
000000000000000000
000002677630000000
0004CFFFFFFD500000
007FFFC9AEFFF60000
04FFF60003EFFE1000
09FFF90000AFFF6000
09FFFA00006FFF9000
03EFE300005FFFA000
00143454326FFF9000
007DFFFFFFFFFF8000
0AFFFEA89BEFFF7000
4FFFF30000DFFF5000
6FFFE00000FFFF4000
4FFFF70003FFFF2000
0BFFFFEEFFFFFF1000
006CFFFFFFFFFF6000
0000133329FFFFFD60
000000000698876653
ENDCHAR
STARTCHAR aacute
ENCODING 225
SWIDTH 572 0
DWIDTH 16 0
BBX 18 26 0 -1
BITMAP
000000000200000000
000000000CD6100000
000000002FFFC00000
000000007FFF500000
00000000CFFC000000
00000002FFF3000000
00000002BFA0000000
000000000220000000
000000000000000000
000002677630000000
0004CFFFFFFD500000
007FFFC9AEFFF60000
04FFF60003EFFE1000
09FFF90000AFFF6000
09FFFA00006FFF9000
03EFE300005FFFA000
00143454326FFF9000
007DFFFFFFFFFF8000
0AFFFEA89BEFFF7000
4FFFF30000DFFF5000
6FFFE00000FFFF4000
4FFFF70003FFFF2000
0BFFFFEEFFFFFF1000
006CFFFFFFFFFF6000
0000133329FFFFFD60
000000000698876653
ENDCHAR
STARTCHAR acircumflex
ENCODING 226
SWIDTH 572 0
DWIDTH 16 0
BBX 18 26 0 -1
BITMAP
000000007B10000000
00000004FFA0000000
0000002EFFF7000000
000001CFFFFF400000
00000AFFEBFFE20000
00007FF9106EFC0000
00002A400001950000
000000000000000000
000000000000000000
000002677630000000
0004CFFFFFFD500000
007FFFC9AEFFF60000
04FFF60003EFFE1000
09FFF90000AFFF6000
09FFFA00006FFF9000
03EFE300005FFFA000
00143454326FFF9000
007DFFFFFFFFFF8000
0AFFFEA89BEFFF7000
4FFFF30000DFFF5000
6FFFE00000FFFF4000
4FFFF70003FFFF2000
0BFFFFEEFFFFFF1000
006CFFFFFFFFFF6000
0000133329FFFFFD60
000000000698876653
ENDCHAR
STARTCHAR atilde
ENCODING 227
SWIDTH 572 0
DWIDTH 16 0
BBX 18 24 0 -1
BITMAP
000000465100150000
00000CFFFE97D90000
00000DFFFFFFF90000
00000DFCFFFFF90000
00000B2017CC920000
000000000000000000
000000000000000000
000002677630000000
0004CFFFFFFD500000
007FFFC9AEFFF60000
04FFF60003EFFE1000
09FFF90000AFFF6000
09FFFA00006FFF9000
03EFE300005FFFA000
00143454326FFF9000
007DFFFFFFFFFF8000
0AFFFEA89BEFFF7000
4FFFF30000DFFF5000
6FFFE00000FFFF4000
4FFFF70003FFFF2000
0BFFFFEEFFFFFF1000
006CFFFFFFFFFF6000
0000133329FFFFFD60
000000000698876653
ENDCHAR
STARTCHAR adieresis
ENCODING 228
SWIDTH 572 0
DWIDTH 16 0
BBX 18 23 0 -1
BITMAP
000005600055000000
00007FF907FF800000
00009FFB09FFA00000
00002CD302CD300000
000000000000000000
000000000000000000
000002677630000000
0004CFFFFFFD500000
007FFFC9AEFFF60000
04FFF60003EFFE1000
09FFF90000AFFF6000
09FFFA00006FFF9000
03EFE300005FFFA000
00143454326FFF9000
007DFFFFFFFFFF8000
0AFFFEA89BEFFF7000
4FFFF30000DFFF5000
6FFFE00000FFFF4000
4FFFF70003FFFF2000
0BFFFFEEFFFFFF1000
006CFFFFFFFFFF6000
0000133329FFFFFD60
000000000698876653
ENDCHAR
STARTCHAR aring
ENCODING 229
SWIDTH 572 0
DWIDTH 16 0
BBX 18 22 0 -1
BITMAP
00000004CD91000000
0000003FFFFB000000
0000009F71DF200000
0000009F60CF200000
0000003FFFFB000000
0000026CFFD1000000
0004CFFFFFFD500000
007FFFC9AEFFF60000
04FFF60003EFFE1000
09FFF90000AFFF6000
09FFFA00006FFF9000
03EFE300005FFFA000
00143454326FFF9000
007DFFFFFFFFFF8000
0AFFFEA89BEFFF7000
4FFFF30000DFFF5000
6FFFE00000FFFF4000
4FFFF70003FFFF2000
0BFFFFEEFFFFFF1000
006CFFFFFFFFFF6000
0000133329FFFFFD60
000000000698876653
ENDCHAR
STARTCHAR ae
ENCODING 230
SWIDTH 1022 0
DWIDTH 29 0
BBX 29 17 0 -1
BITMAP
000004786510000000000000000000
0018EFFFFFF9100000367862000000
02DFFE99CFFFC1007EFFFFFFB20000
0CFFC1000BFFF71CFFFFFFFFFE4000
2FFFF10003FFFDCFFFB3027FFFE200
2FFFF20000EFFFFFFD100007FFF900
0BFF900000DFFFFFF7000001FFFE10
0033354431EFFFFFFCAAAAAAEFFF30
03AFFFFFFFFFFFFFFFFFFFFFFFFF50
4FFFFC88ADFFFFFFFA877776666620
CFFFA00006FFFFFFF9000000000100
EFFF600008FFFCFFFF91000005C100
DFFFC1000BFFF95FFFFEBAACEE4000
5FFFFFDEFFFFF703CFFFFFFFC20000
03AEFFFFFFFFFA20038AB973000000
000023434FFFFFF920000000000000
000000002988776551000000000000
ENDCHAR
STARTCHAR ccedilla
ENCODING 231
SWIDTH 589 0
DWIDTH 17 0
BBX 17 24 0 -10
BITMAP
00000159CDC9400000
00006EFFFFFFFB2000
000AFFFFBADFFFE200
009FFFE3000BFFFA00
04FFFF50000DFFFD00
0AFFFD00000BFFFB00
0FFFFA000002BEC300
1FFFF9000000000000
2FFFF9000000000010
1FFFFC000000000830
0CFFFF300000006F10
06FFFFD2000007FB00
00CFFFFE9547CFF400
001CFFFFFFFFFF9000
00019FFFFFFFE70000
0000016DFC95100000
0000002FF300000000
000000CFFD60000000
000004DFFFF6000000
000000002BFC000000
0000004306FE000000
000002EEAEFB000000
000003EFFFE3000000
00000018A820000000
ENDCHAR
STARTCHAR egrave
ENCODING 232
SWIDTH 593 0
DWIDTH 17 0
BBX 17 25 0 -2
BITMAP
000000000020000000
000000004BF1000000
0000000AFFF6000000
00000005FFFB000000
00000000CFFF100000
000000004FFF600000
000000000AFF700000
000000000282000000
000000000000000000
000000000000000000
0000038CDDC7100000
0002BFFFFFFFE60000
002EFFFFDEFFFF6000
00DFFFB2007FFFF200
07FFFE100008FFFA00
0DFFF7000001FFFE00
1FFFF9776666EFFF30
2FFFFFFFFFFFFFFF50
1FFFFFFEEEDDDDCC40
0DFFF6000000000000
07FFFD100000003300
01DFFFC500014AC000
002EFFFFFDEFFE2000
0001AFFFFFFFA20000
0000027ABA72000000
ENDCHAR
STARTCHAR eacute
ENCODING 233
SWIDTH 593 0
DWIDTH 17 0
BBX 17 24 0 -2
BITMAP
000000000200000000
000000001FB4000000
000000007FFF700000
00000000CFFE100000
00000002FFF7000000
00000007FFD0000000
00000005DF60000000
000000000400000000
000000000000000000
0000038CDDC7100000
0002BFFFFFFFE60000
002EFFFFDEFFFF6000
00DFFFB2007FFFF200
07FFFE100008FFFA00
0DFFF7000001FFFE00
1FFFF9776666EFFF30
2FFFFFFFFFFFFFFF50
1FFFFFFEEEDDDDCC40
0DFFF6000000000000
07FFFD100000003300
01DFFFC500014AC000
002EFFFFFDEFFE2000
0001AFFFFFFFA20000
0000027ABA72000000
ENDCHAR
STARTCHAR ecircumflex
ENCODING 234
SWIDTH 593 0
DWIDTH 17 0
BBX 17 24 0 -2
BITMAP
000000007B10000000
00000004FFA0000000
0000002EFFF7000000
000001CFFFFF400000
00000AFFEBFFE20000
00007FF9106EFC0000
00002A400001950000
000000000000000000
000000000000000000
0000038CDDC7100000
0002BFFFFFFFE60000
002EFFFFDEFFFF6000
00DFFFB2007FFFF200
07FFFE100008FFFA00
0DFFF7000001FFFE00
1FFFF9776666EFFF30
2FFFFFFFFFFFFFFF50
1FFFFFFEEEDDDDCC40
0DFFF6000000000000
07FFFD100000003300
01DFFFC500014AC000
002EFFFFFDEFFE2000
0001AFFFFFFFA20000
0000027ABA72000000
ENDCHAR
STARTCHAR edieresis
ENCODING 235
SWIDTH 593 0
DWIDTH 17 0
BBX 17 21 0 -2
BITMAP
000000650006500000
000009FF609FF60000
00000BFF90BFF80000
000003DC204DC20000
000000000000000000
000000000000000000
0000038CDDC7100000
0002BFFFFFFFE60000
002EFFFFDEFFFF6000
00DFFFB2007FFFF200
07FFFE100008FFFA00
0DFFF7000001FFFE00
1FFFF9776666EFFF30
2FFFFFFFFFFFFFFF50
1FFFFFFEEEDDDDCC40
0DFFF6000000000000
07FFFD100000003300
01DFFFC500014AC000
002EFFFFFDEFFE2000
0001AFFFFFFFA20000
0000027ABA72000000
ENDCHAR
STARTCHAR igrave
ENCODING 236
SWIDTH 393 0
DWIDTH 11 0
BBX 14 26 -1 -1
BITMAP
00000002000000
000006CC000000
0000DFFF300000
00008FFF800000
00001EFFD00000
000007FFF30000
000000DFE50000
00000057100000
00000000000000
00000000000000
38888888881000
029FFFFFFF2000
00018EFFFF0000
000009FFFE0000
000008FFFD0000
000008FFFC0000
000007FFFB0000
000006FFFA0000
000006FFF90000
000005FFF70000
000005FFF60000
000004FFF50000
00003CFFFA1000
0019FFFFFFD400
03BDDEEEFFFF91
00000000000010
ENDCHAR
STARTCHAR iacute
ENCODING 237
SWIDTH 393 0
DWIDTH 11 0
BBX 14 26 -1 -1
BITMAP
00000001000000
00000009E71000
0000000EFFE000
0000004FFF7000
000000AFFE1000
000000EFF60000
000001AFD00000
00000001300000
00000000000000
00000000000000
38888888881000
029FFFFFFF2000
00018EFFFF0000
000009FFFE0000
000008FFFD0000
000008FFFC0000
000007FFFB0000
000006FFFA0000
000006FFF90000
000005FFF70000
000005FFF60000
000004FFF50000
00003CFFFA1000
0019FFFFFFD400
03BDDEEEFFFF91
00000000000010
ENDCHAR
STARTCHAR icircumflex
ENCODING 238
SWIDTH 393 0
DWIDTH 11 0
BBX 14 25 -1 -1
BITMAP
0000004C200000
000002EFC10000
00001CFFFA0000
0000AFFFFF7000
0007FFEBFFF400
004FFB204DFE10
00196000008700
00000000000000
00000000000000
38888888881000
029FFFFFFF2000
00018EFFFF0000
000009FFFE0000
000008FFFD0000
000008FFFC0000
000007FFFB0000
000006FFFA0000
000006FFF90000
000005FFF70000
000005FFF60000
000004FFF50000
00003CFFFA1000
0019FFFFFFD400
03BDDEEEFFFF91
00000000000010
ENDCHAR
STARTCHAR idieresis
ENCODING 239
SWIDTH 393 0
DWIDTH 11 0
BBX 14 22 -1 -1
BITMAP
00003620036100
0002FFD03FFD00
0004FFF15FFF00
0000AE700AE600
00000000000000
00000000000000
38888888881000
029FFFFFFF2000
00018EFFFF0000
000009FFFE0000
000008FFFD0000
000008FFFC0000
000007FFFB0000
000006FFFA0000
000006FFF90000
000005FFF70000
000005FFF60000
000004FFF50000
00003CFFFA1000
0019FFFFFFD400
03BDDEEEFFFF91
00000000000010
ENDCHAR
STARTCHAR eth
ENCODING 240
SWIDTH 672 0
DWIDTH 19 0
BBX 20 26 -1 -3
BITMAP
00015400000000001100
000006D820000005E900
0000002DF81002BFFF50
00000001BFE57FFFF800
000000000AFFFFFD4000
0000000019FFFFA10000
00000006EFFFFFC10000
000002BFFFFCFFFB0000
000004FFFF808FFF9000
0000006FD4001EFFF400
00000006100007FFFD00
00000000000001FFFF60
00000269BDDDC9DFFFD0
0003BFFFFFFFFFFFFFF3
006FFFFFB756AFFFFFF7
04FFFFC2000003EFFFFA
0CFFFD100000004FFFFC
2FFFF7000000000CFFFC
4FFFF4000000000AFFFB
3FFFF4000000000AFFF9
1FFFF8000000000DFFF5
09FFFE100000006FFFD0
01DFFFC2000007FFFF40
002CFFFFB98AEFFFE400
00006DFFFFFFFFE92000
000000369AA974100000
ENDCHAR
STARTCHAR ntilde
ENCODING 241
SWIDTH 643 0
DWIDTH 18 0
BBX 23 21 -3 1
BITMAP
000000000156400024000000
000000001EFFFD88E7000000
000000001FFFFFFFF7000000
000000001FECFFFFF7000000
000000001B1028CC81000000
000000000000000000000000
000000000130000000000000
0001368BDFF038BCA5000000
29DFFFFFFFFDFFFFFFC10000
0037CFFFFFFFFFFFFFFA0000
000001BFFFFB646DFFFF1000
0000008FFFC00001EFFF4000
0000006FFFA000009FFF5000
0000004FFF8000007FFF4000
0000003FFF6000007FFF3000
0000001FFF5000007FFF1000
0000000EFF4000007FFE0000
000017DFFFE810007FFC0000
0016BBBBBBBB9204CFFC3000
00000000000028DFFFFFFA30
000000000001444444333330
ENDCHAR
STARTCHAR ograve
ENCODING 242
SWIDTH 705 0
DWIDTH 20 0
BBX 20 24 0 -1
BITMAP
00000000000100000000
0000000017D900000000
00000002EFFE00000000
00000000BFFF50000000
000000003FFFA0000000
000000000AFFE1000000
0000000002FFD2000000
00000000007500000000
00000000000000000000
00000002455420000000
00005BEFFFFFFEA40000
003DFFFFFEDFFFFFA100
04FFFFE720016EFFFD10
1EFFFD20000002EFFFA0
6FFFF3000000007FFFF2
9FFFD0000000002FFFF5
AFFFC0000000001FFFF6
9FFFE0000000003FFFF5
5FFFF4000000008FFFE1
0CFFFD10000004FFFF80
02DFFFE620249FFFFA00
001AFFFFFFFFFFFE6000
000038DFFFFFEA610000
00000000233100000000
ENDCHAR
STARTCHAR oacute
ENCODING 243
SWIDTH 705 0
DWIDTH 20 0
BBX 20 24 0 -1
BITMAP
00000000002000000000
0000000004FA30000000
0000000009FFF4000000
000000000EFFC0000000
000000004FFF40000000
000000009FFB00000000
000000007EF300000000
00000000004000000000
00000000000000000000
00000002455420000000
00005BEFFFFFFEA40000
003DFFFFFEDFFFFFA100
04FFFFE720016EFFFD10
1EFFFD20000002EFFFA0
6FFFF3000000007FFFF2
9FFFD0000000002FFFF5
AFFFC0000000001FFFF6
9FFFE0000000003FFFF5
5FFFF4000000008FFFE1
0CFFFD10000004FFFF80
02DFFFE620249FFFFA00
001AFFFFFFFFFFFE6000
000038DFFFFFEA610000
00000000233100000000
ENDCHAR
STARTCHAR ocircumflex
ENCODING 244
SWIDTH 705 0
DWIDTH 20 0
BBX 20 23 0 -1
BITMAP
0000000006C100000000
000000003FFB00000000
00000001DFFF80000000
0000000BFFFFF5000000
0000008FFEBFFE300000
000005FFA105DFD10000
000001A5000019600000
00000000000000000000
00000002455420000000
00005BEFFFFFFEA40000
003DFFFFFEDFFFFFA100
04FFFFE720016EFFFD10
1EFFFD20000002EFFFA0
6FFFF3000000007FFFF2
9FFFD0000000002FFFF5
AFFFC0000000001FFFF6
9FFFE0000000003FFFF5
5FFFF4000000008FFFE1
0CFFFD10000004FFFF80
02DFFFE620249FFFFA00
001AFFFFFFFFFFFE6000
000038DFFFFFEA610000
00000000233100000000
ENDCHAR
STARTCHAR otilde
ENCODING 245
SWIDTH 705 0
DWIDTH 20 0
BBX 20 22 0 -1
BITMAP
00000004651001600000
000000AFFFE97DB00000
000000CFFFFFFFB00000
000000CFCEFFFFB00000
000000A3017BCA300000
00000000000000000000
00000000000000000000
00000002455420000000
00005BEFFFFFFEA40000
003DFFFFFEDFFFFFA100
04FFFFE720016EFFFD10
1EFFFD20000002EFFFA0
6FFFF3000000007FFFF2
9FFFD0000000002FFFF5
AFFFC0000000001FFFF6
9FFFE0000000003FFFF5
5FFFF4000000008FFFE1
0CFFFD10000004FFFF80
02DFFFE620249FFFFA00
001AFFFFFFFFFFFE6000
000038DFFFFFEA610000
00000000233100000000
ENDCHAR
STARTCHAR odieresis
ENCODING 246
SWIDTH 705 0
DWIDTH 20 0
BBX 20 21 0 -1
BITMAP
00000005500055000000
0000008FF708FF700000
000000AFFA0AFF900000
0000003DD203DC200000
00000000000000000000
00000000000000000000
00000002455420000000
00005BEFFFFFFEA40000
003DFFFFFEDFFFFFA100
04FFFFE720016EFFFD10
1EFFFD20000002EFFFA0
6FFFF3000000007FFFF2
9FFFD0000000002FFFF5
AFFFC0000000001FFFF6
9FFFE0000000003FFFF5
5FFFF4000000008FFFE1
0CFFFD10000004FFFF80
02DFFFE620249FFFFA00
001AFFFFFFFFFFFE6000
000038DFFFFFEA610000
00000000233100000000
ENDCHAR
STARTCHAR divide
ENCODING 247
SWIDTH 504 0
DWIDTH 14 0
BBX 14 17 0 -1
BITMAP
000004CEB30000
00003FFFFE2000
00006FFFFF5000
00002EFFFE1000
0000029B920000
11000000000000
AFFEDDCBA98875
AFFFFFFFFFFFFC
BFFFFFFFFFFFFC
BFFFFFEEDDCCB8
11100000000000
00000167300000
00002EFFF70000
00008FFFFF1000
00008FFFFE0000
00001BFFE50000
00000023100000
ENDCHAR
STARTCHAR oslash
ENCODING 248
SWIDTH 705 0
DWIDTH 20 0
BBX 20 21 0 -4
BITMAP
00000000000002B30000
0000000000000BFF7000
0000000000004FFFF200
000000024555DFFF8000
00005BEFFFFFFFFE1000
003DFFFFFEDFFFFFA100
04FFFFE7209FFFFFFC10
1EFFFD2003FFFEEFFFA0
6FFFF3000BFFF67FFFF2
9FFFD0005FFFC03FFFF6
AFFFC000DFFF301FFFF7
9FFFE007FFF8003FFFF5
5FFFF52EFFD1008FFFE1
0CFFFDAFFF5004FFFF80
02CFFFFFFA249FFFFA00
0019FFFFFFFFFFFE6000
00007FFFFFFFEA610000
0001DFFC233100000000
0007FFF3000000000000
0003CF90000000000000
00000610000000000000
ENDCHAR
STARTCHAR ugrave
ENCODING 249
SWIDTH 614 0
DWIDTH 17 0
BBX 23 25 -3 -2
BITMAP
000000000001100000000000
00000000029E600000000000
000000005FFFB00000000000
000000001EFFF10000000000
0000000007FFF60000000000
0000000000DFFB0000000000
00000000006FFC0000000000
000000000008400000000000
000000000000000000000000
19BBBBBCC314444555540000
007EFFFFF303BFFFFFFC0000
00019FFFF10003AFFFF90000
00003FFFF000000AFFF70000
00004FFFD000000AFFF40000
00004FFFC000000BFFF20000
00004FFFB000000CFFE00000
00004FFFA000000DFFC00000
00004FFFA000000DFFA00000
00002FFFC000000EFF700000
00000EFFF200005FFF500000
000008FFFD745AFFFF300000
000001DFFFFFFFFFFF820000
00000019EFFFFD5FFFFFC610
000000000345300FFDA74100
000000000000000310000000
ENDCHAR
STARTCHAR uacute
ENCODING 250
SWIDTH 614 0
DWIDTH 17 0
BBX 23 25 -3 -2
BITMAP
000000000001100000000000
000000000005F92000000000
00000000000BFFF300000000
00000000001FFFB000000000
00000000006FFF3000000000
0000000000BFFA0000000000
00000000008EF20000000000
000000000001400000000000
000000000000000000000000
19BBBBBCC314444555540000
007EFFFFF303BFFFFFFC0000
00019FFFF10003AFFFF90000
00003FFFF000000AFFF70000
00004FFFD000000AFFF40000
00004FFFC000000BFFF20000
00004FFFB000000CFFE00000
00004FFFA000000DFFC00000
00004FFFA000000DFFA00000
00002FFFC000000EFF700000
00000EFFF200005FFF500000
000008FFFD745AFFFF300000
000001DFFFFFFFFFFF820000
00000019EFFFFD5FFFFFC610
000000000345300FFDA74100
000000000000000310000000
ENDCHAR
STARTCHAR ucircumflex
ENCODING 251
SWIDTH 614 0
DWIDTH 17 0
BBX 23 25 -3 -2
BITMAP
00000000000A800000000000
00000000009FF60000000000
0000000005FFFF3000000000
000000003EFFFFD100000000
00000001DFFCDFFB00000000
0000000BFE6018FF80000000
00000004A200003A30000000
000000000000000000000000
000000000000000000000000
19BBBBBCC314444555540000
007EFFFFF303BFFFFFFC0000
00019FFFF10003AFFFF90000
00003FFFF000000AFFF70000
00004FFFD000000AFFF40000
00004FFFC000000BFFF20000
00004FFFB000000CFFE00000
00004FFFA000000DFFC00000
00004FFFA000000DFFA00000
00002FFFC000000EFF700000
00000EFFF200005FFF500000
000008FFFD745AFFFF300000
000001DFFFFFFFFFFF820000
00000019EFFFFD5FFFFFC610
000000000345300FFDA74100
000000000000000310000000
ENDCHAR
STARTCHAR udieresis
ENCODING 252
SWIDTH 614 0
DWIDTH 17 0
BBX 23 22 -3 -2
BITMAP
000000005600055000000000
00000007FF907FF800000000
00000009FFB09FFA00000000
00000002CD302CD300000000
000000000000000000000000
000000000000000000000000
19BBBBBCC314444555540000
007EFFFFF303BFFFFFFC0000
00019FFFF10003AFFFF90000
00003FFFF000000AFFF70000
00004FFFD000000AFFF40000
00004FFFC000000BFFF20000
00004FFFB000000CFFE00000
00004FFFA000000DFFC00000
00004FFFA000000DFFA00000
00002FFFC000000EFF700000
00000EFFF200005FFF500000
000008FFFD745AFFFF300000
000001DFFFFFFFFFFF820000
00000019EFFFFD5FFFFFC610
000000000345300FFDA74100
000000000000000310000000
ENDCHAR
STARTCHAR yacute
ENCODING 253
SWIDTH 655 0
DWIDTH 18 0
BBX 20 37 -2 -13
BITMAP
00000000001100000000
00000000005F92000000
0000000000BFFF300000
0000000001FFFB000000
0000000006FFF3000000
000000000BFFA0000000
0000000008EF20000000
00000000001400000000
10000000000000000000
1B930000000000000000
02EFD830018BA8753200
003EFFFD8205EFFFFFF7
0004FFFFF8001AFFFFF7
0000EFFFF300007FFFF6
0003FFFFD000005FFFF5
0008FFFF8000005FFFF5
000CFFFF4000006FFFF4
000EFFFF1000006FFFF3
000FFFFF0000006FFFF3
000CFFFF7000006FFFF2
0007FFFFFA5457CFFFF2
0000BFFFFFFFFFFFFFF1
000008EFFFFFFEDFFFF0
000000046765208FFFF0
000000000000009FFFE0
000000000000009FFFD0
000000000000009FFFD0
00000000000000AFFFC0
00001310000000CFFFA0
0004EFD1000000EFFF80
000CFFF7000002FFFF50
000DFFF5000007FFFE10
000AFFA000001EFFF800
0003FFF71003CFFFD100
00006FFFFDDFFFFD2000
000004CFFFFFFE810000
00000003688741000000
ENDCHAR
STARTCHAR thorn
ENCODING 254
SWIDTH 734 0
DWIDTH 21 0
BBX 24 32 -3 -12
BITMAP
155555555553000000000000
03AFFFFFFFFA000000000000
0002AFFFFFFA000000000000
0000029FFFFA000000000000
0000001FFFFA000000000000
0000000FFFFA000000000000
0000000FFFFA000000000000
0000000EFFFA000000000000
0000000EFFFA000000000000
0000000EFFFA000000000000
0000000DFFFA001110000000
0000000DFFFDBEFFFEB61000
0000000CFFFFFFFFFFFFE500
0000000CFFFE84346CFFFF60
0000000BFFFA0000007FFFF2
0000000BFFFA0000000BFFF8
0000000BFFFA00000006FFFB
0000000AFFFA00000006FFFC
0000000AFFFA00000009FFFA
00000009FFFA0000002EFFF6
00000009FFFC300003DFFFD0
00000008FFFFFECBDFFFFE20
00000008FFFFFFFFFFFFA200
00000008FFFB379ABA720000
00000007FFFB000000000000
00000007FFFB000000000000
00000006FFFC000000000000
00000006FFFC000000000000
00000006FFFD100000000000
0000029EFFFFE93000000000
0003AFFFFFFFFFFC61000000
016987766544322110000000
ENDCHAR
STARTCHAR ydieresis
ENCODING 255
SWIDTH 655 0
DWIDTH 18 0
BBX 20 34 -2 -13
BITMAP
00000005600055000000
0000007FF907FF800000
0000009FFB09FFA00000
0000002CD302CD300000
00000000000000000000
10000000000000000000
1B930000000000000000
02EFD830018BA8753200
003EFFFD8205EFFFFFF7
0004FFFFF8001AFFFFF7
0000EFFFF300007FFFF6
0003FFFFD000005FFFF5
0008FFFF8000005FFFF5
000CFFFF4000006FFFF4
000EFFFF1000006FFFF3
000FFFFF0000006FFFF3
000CFFFF7000006FFFF2
0007FFFFFA5457CFFFF2
0000BFFFFFFFFFFFFFF1
000008EFFFFFFEDFFFF0
000000046765208FFFF0
000000000000009FFFE0
000000000000009FFFD0
000000000000009FFFD0
00000000000000AFFFC0
00001310000000CFFFA0
0004EFD1000000EFFF80
000CFFF7000002FFFF50
000DFFF5000007FFFE10
000AFFA000001EFFF800
0003FFF71003CFFFD100
00006FFFFDDFFFFD2000
000004CFFFFFFE810000
00000003688741000000
ENDCHAR
STARTCHAR dotlessi
ENCODING 305
SWIDTH 393 0
DWIDTH 11 0
BBX 14 16 -1 -1
BITMAP
38888888881000
029FFFFFFF2000
00018EFFFF0000
000009FFFE0000
000008FFFD0000
000008FFFC0000
000007FFFB0000
000006FFFA0000
000006FFF90000
000005FFF70000
000005FFF60000
000004FFF50000
00003CFFFA1000
0019FFFFFFD400
03BDDEEEFFFF91
00000000000010
ENDCHAR
STARTCHAR Lslash
ENCODING 321
SWIDTH 713 0
DWIDTH 20 0
BBX 23 22 -3 0
BITMAP
16CEFFFFFFFFFFFFE8200000
00039EFFFFFFFFD610000000
0000005DFFFFD40000000000
0000000BFFFF900000000000
0000000AFFFF900000000000
00000009FFFF900000000000
00000008FFFF84B900000000
00000007FFFFEFFF20000000
00000007FFFFFFFF90000000
00000008FFFFFFFFA0000010
000017DFFFFFFE8100000070
0006EFFFFFFF9000000002B0
0007FFFFFFFF7000000008B0
0001EFD9FFFF700000000DB0
00006502FFFF600000004FB0
00000001FFFF60000000AFB0
00000000FFFF60000001FFB0
00000000FFFF60000007FFB0
00000001EFFF9554433DFFB0
0000029EFFFFFFFFFFFFFFB0
00029FFFFFFFFFFFFFFFFEA0
016BAA988766544322100000
ENDCHAR
STARTCHAR lslash
ENCODING 322
SWIDTH 365 0
DWIDTH 10 0
BBX 15 27 -3 -3
BITMAP
5BEEEFFFFFF00000
0039EFFFFFE00000
000006FFFFE00000
000001FFFFD00000
000000FFFFD00000
000000EFFFC00000
000000EFFFC00000
000000DFFFB00300
000000CFFFB6DF30
000000CFFFFFFF90
000001CFFFFFFF80
00039EFFFFFF9200
02BFFFFFFFB20000
01EFFFFFFF700000
009FFFDFFF700000
003F927FFF600000
0001007FFF600000
0000006FFF500000
0000006FFF500000
0000005FFF400000
0000004FFF400000
0000004FFF300000
0000003FFF300000
000001AFFFC30000
00005EFFFFFF8100
001AFFFEEDCCB910
0011100000000000
ENDCHAR
STARTCHAR OE
ENCODING 338
SWIDTH 1195 0
DWIDTH 33 0
BBX 33 22 0 -1
BITMAP
0000000000000000000000000000001210
000000000000000012345679ABCDEFFF50
00000000017ABCEFFFFFFFFFFFFFFFFF50
0000000000037CFFFFFFFFEDBA976EFF40
0000000000000027DFFFFC00000009FF30
00000379BBB951008FFFFC00001002FF30
0005CFFFFFFFFE818FFFFC00007000BF20
008FFFFE979EFFFC9FFFFB0003B0004F20
07FFFF800001BFFFFFFFFB000BB0000D10
1FFFF80000001DFFFFFFFA003FA0000610
7FFFE000000007FFFFFFFA00AFA0000100
9FFFA000000003FFFFFFFECDFFA0000100
AFFF9000000002FFFFFFFFFFFFA0000600
9FFFA000000004FFFFFFFFFFFF90002900
6FFFE000000007FFFFFFF812DF90007900
1EFFF50000001DFFFFFFF8005F9000C900
06FFFE300001BFFFDFFFF7000A8001F900
008FFFFA769EFFFB3FFFF700027006FA00
0004DFFFFFFFFE602FFFF70000100BFA00
0000048BCCB84016CFFFFDBBBBBCCFFA00
0000000000004AFFFFFFFFFFFFFFFFFA00
000000000038AA99999999988888888500
ENDCHAR
STARTCHAR oe
ENCODING 339
SWIDTH 1087 0
DWIDTH 30 0
BBX 31 15 0 -2
BITMAP
0000158ABBA740000000245310000000
0018EFFFFFFFFC50029EFFFFFB400000
01CFFFFA769FFFF87FFFFFFFFFF90000
0CFFFC200003DFFFFFFFB769FFFF8000
4FFFD10000003FFFFFF700004FFFF300
9FFF700000000CFFFFD000000AFFFA00
AFFF400000000AFFFF92111116FFFE00
9FFF500000000BFFFFFFFFFFFFFFFF20
7FFF900000000EFFFFFFFFFFFFFFFF30
1EFFF30000007FFFFFA4333322221100
05FFFE500029FFFFFFD1000000003100
004EFFFEDEFFFFBEFFFD50000049A000
00017CFFFFFEA403EFFFFECCDFFC1000
00000013432000001AFFFFFFFE810000
000000000000000000169AA851000000
ENDCHAR
STARTCHAR Scaron
ENCODING 352
SWIDTH 661 0
DWIDTH 19 0
BBX 19 31 0 -3
BITMAP
00001A8100018A100000
00002EFD404DFE200000
000005FFFCFFF4000000
0000008FFFFF70000000
0000000BFFFA00000000
00000001DFD100000000
000000003B2000000000
00000000000000000000
00000000000000000300
00000024432000002B00
0005BEFFFFFE9401CB00
01BFFFFFFFFFFFCBF900
0CFFFD510149EFFFF700
5FFFE10000001AFFF600
9FFFE0000000008FF400
AFFFFC4000000006F200
8FFFFFFEA6200000A100
2FFFFFFFFFFD83000000
05EFFFFFFFFFFFB20000
002AFFFFFFFFFFFF6000
000017BEFFFFFFFFF500
0030000037DFFFFFFE00
00B000000006EFFFFF20
01F6000000003FFFFF20
02FF500000000EFFFE00
04FFF92000008FFFF700
05FFFFFC98AEFFFF9000
07E28EFFFFFFFFD50000
08800159BCCA73000000
09100000000000000000
04000000000000000000
ENDCHAR
STARTCHAR scaron
ENCODING 353
SWIDTH 533 0
DWIDTH 15 0
BBX 15 26 0 -1
BITMAP
0004C400003B5000
0008FFA118FF9000
0000BFFEDFFC0000
00001DFFFFE20000
000003EFFF400000
0000005FF7000000
0000000780000000
0000000000000000
0000146530000610
002AFFFFFD600D00
03EFFFFFFFFC8E00
0DFFC3004BFFFE00
5FFF6000006FFD00
6FFFD2000005FD00
4FFFFFA400006C00
0CFFFFFFE9300800
02DFFFFFFFFB4000
0118FFFFFFFFF700
091028DFFFFFFF50
0C9000039EFFFFC0
0EF8000001BFFFE0
0FFFA200005FFFC0
2FFFFFA768EFFF50
3FBCFFFFFFFFF600
5C1048BDECB72000
4100000000000000
ENDCHAR
STARTCHAR Ydieresis
ENCODING 376
SWIDTH 848 0
DWIDTH 24 0
BBX 30 26 -4 -2
BITMAP
000000000000046100461000000000
0000000000004FFB05FFB000000000
0000000000006FFD07FFD000000000
0000000000001BE501BD5000000000
000000000000000000000000000000
000000000011234100000000000000
17ABBCDEEFFFFE6000000000000000
0039EFFFFFFFA10001665544322110
000005AFFFFF8000003BFFFFFFFE82
00000003EFFFF50000005EFFFC5000
000000004FFFFF3000001CFB300000
0000000006FFFFE20001CFB0000000
00000000007FFFFC101CFC10000000
000000000009FFFFA1CFD100000000
000000000000BFFFFEFE2000000000
0000000000001CFFFFE30000000000
00000000000002DFFF500000000000
00000000000000AFFF400000000000
00000000000000BFFF600000000000
00000000000000BFFF700000000000
00000000000000CFFF800000000000
00000000000000CFFFA00000000000
00000000000000DFFFB00000000000
00000000000002EFFFE61000000000
000000000004BFFFFFFFFA51000000
0000000005CEEEEDDDDDDDDC720000
ENDCHAR
STARTCHAR Zcaron
ENCODING 381
SWIDTH 685 0
DWIDTH 19 0
BBX 20 26 0 0
BITMAP
000002B600002A800000
000004FFC306EFC10000
0000007FFFCFFE200000
0000000AFFFFF4000000
00000001DFFF70000000
000000002EFA00000000
0000000005A100000000
00000000000000000000
00000000000000001112
5AABBBCCDDDEEFFFFFFA
4FFFFFFFFFFFFFFFFFC1
1FFFDCCBBAAAFFFFFE20
0BFF0000000BFFFFF500
07FC0000009FFFFF8000
03F9000007FFFFFB0000
00E700005FFFFFD10000
00A40003EFFFFF300020
0061002EFFFFF60000A0
001001CFFFFF900006B0
00000BFFFFFC00000DB0
00009FFFFFE200007FA0
0006FFFFFF400001EF90
004FFFFFF8000008FF80
03EFFFFFFFFFEEDFFF70
1DFFFFFFFFFFFFFFFF60
36667777777888888830
ENDCHAR
STARTCHAR zcaron
ENCODING 382
SWIDTH 549 0
DWIDTH 15 0
BBX 17 25 0 -1
BITMAP
0002B700001A900000
0003FFC306EFD10000
00006FFFCFFE300000
000009FFFFF5000000
000000CFFF80000000
0000002EFB00000000
00000004A100000000
000000000000000000
000000000000000000
245556667788899930
7FFFFFFFFFFFFFFA00
4FFFFFFEEEFFFFD100
1FFC10001DFFFF3000
0DF70000BFFFF70000
0AF30008FFFFB00000
07D0005FFFFD100000
049003EFFFF4004000
01401DFFFF70039000
0000BFFFFB000AA000
0008FFFFE1002FA000
005FFFFF40008FB000
03EFFFFD8643EFC000
1DFFFFFFFFFFFFD000
49ABCDEFFFFFFFE000
000000001234567000
ENDCHAR
STARTCHAR circumflex
ENCODING 710
SWIDTH 714 0
DWIDTH 20 0
BBX 10 7 6 19
BITMAP
00008A0000
0005FF9000
003EFFF600
01DFFFFF30
0BFFDCFFD1
8FF9106EFB
2A300002A4
ENDCHAR
STARTCHAR caron
ENCODING 711
SWIDTH 714 0
DWIDTH 20 0
BBX 10 7 6 19
BITMAP
3C500003B6
7FFA208FFA
0AFFEDFFD1
01CFFFFE20
002EFFF500
0004FF8000
0000690000
ENDCHAR
STARTCHAR breve
ENCODING 728
SWIDTH 715 0
DWIDTH 20 0
BBX 10 7 6 20
BITMAP
0100000010
3E700004E5
2FFA438FF5
09FFFFFFB0
01DFFFFE20
002CFFD300
0000441000
ENDCHAR
STARTCHAR dotaccent
ENCODING 729
SWIDTH 708 0
DWIDTH 20 0
BBX 4 4 8 23
BITMAP
0650
9FF6
BFF9
3DC2
ENDCHAR
STARTCHAR ring
ENCODING 730
SWIDTH 704 0
DWIDTH 20 0
BBX 6 6 8 20
BITMAP
08ED70
8FFFF7
EF23FC
EE23FC
7FFFF6
07DC60
ENDCHAR
STARTCHAR ogonek
ENCODING 731
SWIDTH 988 0
DWIDTH 28 0
BBX 11 8 8 -4
BITMAP
019900000000
08FD00000000
0EFD00000000
2FFF20000000
1FFFD7457970
0CFFFFFFFF70
02CFFFFFB400
000256410000
ENDCHAR
STARTCHAR tilde
ENCODING 732
SWIDTH 707 0
DWIDTH 20 0
BBX 10 5 6 20
BITMAP
0156300043
3FFFFC79F4
4FFFFFFFF4
4FEDFFFFF4
491039CC71
ENDCHAR
STARTCHAR hungarumlaut
ENCODING 733
SWIDTH 671 0
DWIDTH 19 0
BBX 11 8 5 20
BITMAP
002000110000
00DC506E9200
03FFFABFFF30
08FFF5FFFB00
0DFFA6FFF300
3FFF2BFF9000
3BF908EF2000
003100130000
ENDCHAR
STARTCHAR endash
ENCODING 8211
SWIDTH 576 0
DWIDTH 16 0
BBX 14 5 1 8
BITMAP
14555666777882
5FFFFFFFFFFFF5
5FFFFFFFFFFFF5
5FFFFFFFFFFFF6
256667788899A4
ENDCHAR
STARTCHAR emdash
ENCODING 8212
SWIDTH 993 0
DWIDTH 28 0
BBX 26 5 1 8
BITMAP
00000111112222223333344440
5FFFFFFFFFFFFFFFFFFFFFFFF0
5FFFFFFFFFFFFFFFFFFFFFFFF1
5FFFFFFFFFFFFFFFFFFFFFFFF1
39AAAAABBBBBCCCCCDDDDDEEE2
ENDCHAR
STARTCHAR quoteleft
ENCODING 8216
SWIDTH 261 0
DWIDTH 7 0
BBX 7 10 0 11
BITMAP
00010000
0009E810
003FFFE0
00BFFF90
04FFFF40
0CFFFE00
5FFFF900
4CFFF400
003AD000
00001000
ENDCHAR
STARTCHAR quoteright
ENCODING 8217
SWIDTH 301 0
DWIDTH 8 0
BBX 8 9 0 12
BITMAP
00020000
001FB400
006FFFD4
00BFFFF3
01FFFF90
06FFFF20
0BFFF800
1EFFE100
017D7000
ENDCHAR
STARTCHAR quotesinglbase
ENCODING 8218
SWIDTH 332 0
DWIDTH 9 0
BBX 8 9 0 -2
BITMAP
00020000
001FB400
006FFFD4
00BFFFF3
01FFFF90
06FFFF20
0BFFF800
1EFFE100
017D7000
ENDCHAR
STARTCHAR quotedblleft
ENCODING 8220
SWIDTH 477 0
DWIDTH 13 0
BBX 13 10 0 11
BITMAP
00010000011000
0009E81009E810
003FFFE02FFFE0
00BFFF90AFFFA0
04FFFF43FFFF40
0CFFFE0BFFFE00
5FFFF94FFFF900
4CFFF44BFFF400
003AD0003AD000
00001000001000
ENDCHAR
STARTCHAR quotedblright
ENCODING 8221
SWIDTH 477 0
DWIDTH 13 0
BBX 13 9 0 12
BITMAP
00100000100000
009D71009E7100
00EFFE90EFFF90
04FFFF94FFFFA0
09FFFE19FFFF20
0EFFF80EFFF800
4FFFE14FFFE100
8FFF608FFF7000
04AD0004AD0000
ENDCHAR
STARTCHAR quotedblbase
ENCODING 8222
SWIDTH 477 0
DWIDTH 13 0
BBX 13 9 0 -2
BITMAP
00100000100000
009D71009E7100
00EFFE90EFFF90
04FFFF94FFFFA0
09FFFE19FFFF20
0EFFF80EFFF800
4FFFE14FFFE100
8FFF608FFF7000
04BD0004AD1000
ENDCHAR
STARTCHAR dagger
ENCODING 8224
SWIDTH 487 0
DWIDTH 14 0
BBX 13 33 0 -9
BITMAP
00001456730000
00003FFFF60000
00003FFFF50000
00002FFFF50000
00002FFFF50000
00002FFFF50000
00001FFFF40000
3CBAAFFFF74320
5FFFFFFFFFFFF0
5FFFFFFFFFFFE0
6FFFFFFFFFFFD0
4A998FFFF75530
00000FFFF20000
00000EFFF20000
00000EFFF20000
00000EFFF10000
00000EFFF10000
00000DFFF10000
00000DFFF00000
00000DFFF00000
00000CFFF00000
00000CFFE00000
00000CFFE00000
00000BFFE00000
00000BFFD00000
00000BFFD00000
00000AFFD00000
00000AFFC00000
00000AFFC00000
00000AFFC00000
000009FFB00000
000009FFB00000
00000244300000
ENDCHAR
STARTCHAR daggerdbl
ENCODING 8225
SWIDTH 497 0
DWIDTH 14 0
BBX 13 33 0 -9
BITMAP
00001456730000
00003FFFF60000
00003FFFF50000
00002FFFF50000
00002FFFF50000
00002FFFF50000
00001FFFF40000
3CBAAFFFF74320
5FFFFFFFFFFFF0
5FFFFFFFFFFFE0
6FFFFFFFFFFFD0
4A998FFFF75530
00000FFFF30000
00000EFFF20000
25678FFFFCDED0
6FFFFFFFFFFFE0
5FFFFFFFFFFFF0
3FFFFFFFFFFFF0
02233EFFF67780
00000DFFF00000
00000DFFF00000
00000CFFF00000
00000CFFE00000
00000CFFE00000
00000BFFE00000
00000BFFD00000
00000BFFD00000
00000AFFC00000
00000AFFC00000
00000AFFC00000
000009FFB00000
000009FFB00000
00000244300000
ENDCHAR
STARTCHAR bullet
ENCODING 8226
SWIDTH 275 0
DWIDTH 8 0
BBX 8 9 0 6
BITMAP
00476200
0AFFFE50
7FFFFFF3
DFFFFFF9
FFFFFFFA
CFFFFFF7
4FFFFFD1
04DFFB20
00021000
ENDCHAR
STARTCHAR ellipsis
ENCODING 8230
SWIDTH 787 0
DWIDTH 22 0
BBX 22 6 0 -3
BITMAP
0034100000440000014300
1CFFE4002DFFD2004EFFC1
8FFFFE00BFFFFC00DFFFF9
AFFFFE00CFFFFC00FFFFFA
3EFFF7004EFFF5007FFFE3
0156300001562000026510
ENDCHAR
STARTCHAR perthousand
ENCODING 8240
SWIDTH 888 0
DWIDTH 25 0
BBX 26 24 0 -2
BITMAP
000000000000B7200000000000
003686100006FFF90000000000
1BFFFFD3000CFFF50000000000
9FFDBFFD103FFFD00000000000
EFF20AFF409FFF700000000000
FFE008FF51EFFE100000000000
CFF73DFF26FFF9000000000000
3FFFFFF80CFFF2000000000000
03CFFD603FFFA0000000000000
000110009FFF40000000000000
00000001EFFC00000000000000
00000006FFF600000000000000
0000000CFFE000000000000000
0000003FFF8000000000000000
0000009FFF1002430000244100
000001EFFA04DFFFE42BFFFE70
000006FFF33FFFEFFFDFFEFFF6
00000CFFB08FF807FFFFC13FFD
00003FFF50AFF403FFFF800EFF
00009FFD008FF808FFFFC13FFC
0001EFF7001EFFFFFECFFFFFF5
0006FFE10003CFFFC31AFFFD50
0004BF90000003420000143000
00000210000000000000000000
ENDCHAR
STARTCHAR guilsinglleft
ENCODING 8249
SWIDTH 234 0
DWIDTH 7 0
BBX 7 15 0 -1
BITMAP
00001700
0000BE10
0007FF20
003FFA00
01DFF300
0AFFC000
6FFF5000
BFFF1000
5FFF6000
08FFD000
00CFF400
002EFB00
0005FF20
00009E00
00001500
ENDCHAR
STARTCHAR guilsinglright
ENCODING 8250
SWIDTH 223 0
DWIDTH 6 0
BBX 7 15 0 -1
BITMAP
18000000
7F400000
8FE20000
2FFB0000
0AFF7000
03FFF300
00CFFD10
007FFF40
00DFFC00
04FFE200
0BFF6000
3FFA0000
9FD10000
6F300000
06000000
ENDCHAR
STARTCHAR fraction
ENCODING 8260
SWIDTH 600 0
DWIDTH 17 0
BBX 19 28 -1 -4
BITMAP
00000000000000300000
00000000000001EC3000
00000000000009FFF800
0000000000003FFFFF70
000000000000CFFFFD10
000000000005FFFFF400
00000000001DFFFFA000
00000000008FFFFE2000
0000000002FFFFF60000
000000000AFFFFC00000
000000004FFFFF300000
00000000CFFFF9000000
00000006FFFFD1000000
0000001EFFFF50000000
0000009FFFFB00000000
000002FFFFE200000000
00000BFFFF7000000000
00005FFFFD0000000000
0000DFFFF40000000000
0007FFFF900000000000
001EFFFE100000000000
009FFFF6000000000000
03FFFFB0000000000000
0CFFFF20000000000000
5FFFF800000000000000
7FFFD100000000000000
03BF4000000000000000
00040000000000000000
ENDCHAR
STARTCHAR Euro
ENCODING 8364
SWIDTH 590 0
DWIDTH 17 0
BBX 18 18 -1 1
BITMAP
000000000245300000
00000006CFFFFE8100
000001BFFFFFFFFD20
00001DFFF7003DFFC0
0000AFFF60000BFFF4
0003FFFC00000DFFF6
343AFFF7000008FFF3
BFFFFFFFEEDB005730
CFFFFFFFFFFF200000
677FFFF64443100000
345FFFF86777500001
BFFFFFFFFFFFE00008
789CFFFFDDDEE40089
0002FFFFB1000008F4
00008FFFFD6336DFC0
00000AFFFFFFFFFE20
0000007FFFFFFFB200
000000016ABB830000
ENDCHAR
STARTCHAR trademark
ENCODING 8482
SWIDTH 624 0
DWIDTH 17 0
BBX 18 13 0 8
BITMAP
003900000000000000
007B00000000000000
02EA00000000000000
9EFB64000000000000
9DFDDD000000000000
0AF500014111001000
0CF406DFFDFF8CFE40
0DF2001CF85DFA6FA0
0EF10009F108F10CC0
0FF00407E008E00BB0
0EF3682AE408D04ED2
08FFE334458DE84455
005620000000000000
ENDCHAR
STARTCHAR minus
ENCODING 8722
SWIDTH 549 0
DWIDTH 15 0
BBX 16 6 0 7
BITMAP
2211000000000000
9FFFFEDDCBAA9871
AFFFFFFFFFFFFFF1
AFFFFFFFFFFFFFF0
AFFFFFFFFFFFFFE0
8BAA998877665540
ENDCHAR
STARTCHAR fi
ENCODING 64257
SWIDTH 757 0
DWIDTH 21 0
BBX 25 39 -2 -12
BITMAP
00000000005ACDC95000000000
000000002BFFFFFFFE50000000
00000001DFFE98CFFFF7000000
0000000AFFE20006FFFF300000
0000003FFF8000009FFFB00000
0000009FFF4000009FFFF10000
000000CFFF200003FFFFF30000
000000FFFF100006FFFFF40000
000001FFFF100003FFFFE10000
000001FFFF2000006EFE500000
000000FFFF3000000020000000
000000EFFF4000000000000000
001111DFFF6112222333410000
009FFFFFFFFFFFFFFFFFF40000
009FFFFFFFFFFFFFFFFFF30000
004777BFFFE66666BFFFF20000
0000006FFFE000008FFFF10000
0000004FFFF100007FFFF00000
0000002FFFF300005FFFE00000
0000000FFFF400004FFFC00000
0000000EFFF600003FFFB00000
0000000CFFF800001FFFA00000
0000000AFFFA00000FFF900000
00000008FFFB00000EFF800000
00000006FFFD00019FFFC20000
00000004FFFF006EFFFFFE6000
00000003FFFF39DDEEEFFFFA10
00000001FFFF30000000000100
00000000DFFF50000000000000
00000000BFFF60000000000000
00100000AFFF70000000000000
0BFE40009FFF60000000000000
5FFFC000AFFF40000000000000
5FFFB000DFFE10000000000000
2FFF5003FFF900000000000000
0AFFD44DFFE200000000000000
01CFFFFFFE4000000000000000
0007EFFFA20000000000000000
00000221000000000000000000
ENDCHAR
STARTCHAR fl
ENCODING 64258
SWIDTH 776 0
DWIDTH 22 0
BBX 25 39 -2 -12
BITMAP
00000000006BEFEC7200000000
000000002CFFFFFFFE60000000
00000001DFFD759FFFF6000000
0000000AFFD10006FFFF200000
0000003FFF700000DFFF900000
0000008FFF4000009FFFE00000
000000CFFF2000006FFFF30000
000000FFFF1000004FFFF60000
000001FFFF1000003FFFF70000
000001FFFF2000003FFFF80000
000000FFFF3000002FFFF80000
000000EFFF4000001FFFF70000
001111DFFF6111101FFFF70000
009FFFFFFFFFFFF30FFFF60000
009FFFFFFFFFFFF30EFFF60000
004777BFFFE777710EFFF50000
0000006FFFE000000DFFF50000
0000004FFFF100000CFFF50000
0000002FFFF300000CFFF40000
0000001FFFF400000BFFF30000
0000000EFFF600000BFFF20000
0000000CFFF800000AFFF20000
0000000AFFFA000009FFF10000
00000008FFFB000009FFF00000
00000006FFFD000008FFE00000
00000005FFFF000007FFE00000
00000003FFFF20003CFFF91000
00000001FFFF3008FFFFFFE500
00000000DFFF53DFFFEDDCCB60
00000000BFFF62110000000000
00100000AFFF70000000000000
0BFE40009FFF60000000000000
5FFFC000AFFF40000000000000
5FFFB000DFFE10000000000000
2FFF5003FFF900000000000000
0AFFD44DFFE200000000000000
01CFFFFFFE4000000000000000
0007EFFFA20000000000000000
00000221000000000000000000
ENDCHAR
STARTCHAR .notdef
ENCODING -1
SWIDTH 320 0
DWIDTH 9 0
BBX 1 1 0 0
BITMAP
00
ENDCHAR
ENDFONT
